<?xml version="1.0" encoding="utf-8"?>
<!-- Generator: Adobe Illustrator 26.5.0, SVG Export Plug-In . SVG Version: 6.00 Build 0)  -->
<svg version="1.1" id="Layer_1"
	xmlns="http://www.w3.org/2000/svg"
	xmlns:xlink="http://www.w3.org/1999/xlink" x="0px" y="0px" viewBox="0 0 1000 1000" style="enable-background:new 0 0 1000 1000;" xml:space="preserve">
	<style type="text/css">
	.st0{fill:rgba(3, 66, 77, 1);}
	.st1{fill:#FFFFFF;}
	</style>
	<g>
		<path class="st0" d="M500,885c-51.98,0-102.4-10.18-149.85-30.25c-45.84-19.39-87.02-47.15-122.38-82.51
		c-35.36-35.36-63.12-76.54-82.51-122.38C125.18,602.4,115,551.98,115,500s10.18-102.4,30.25-149.85
		c19.39-45.84,47.15-87.02,82.51-122.38c35.36-35.36,76.54-63.12,122.38-82.51C397.6,125.18,448.02,115,500,115
		s102.4,10.18,149.85,30.25c45.84,19.39,87.02,47.15,122.38,82.51c35.36,35.36,63.12,76.54,82.51,122.38
		C874.82,397.6,885,448.02,885,500s-10.18,102.4-30.25,149.85c-19.39,45.84-47.15,87.02-82.51,122.38s-76.54,63.12-122.38,82.51
		C602.4,874.82,551.98,885,500,885z"/>
		<path class="st1" d="M500,130c49.96,0,98.42,9.78,144.01,29.06c44.06,18.63,83.63,45.32,117.62,79.31
		c33.99,33.99,60.67,73.56,79.31,117.62C860.22,401.58,870,450.04,870,500s-9.78,98.42-29.06,144.01
		c-18.63,44.06-45.32,83.63-79.31,117.62s-73.56,60.67-117.62,79.31C598.42,860.22,549.96,870,500,870s-98.42-9.78-144.01-29.06
		c-44.06-18.63-83.63-45.32-117.62-79.31c-33.99-33.99-60.67-73.56-79.31-117.62C139.78,598.42,130,549.96,130,500
		s9.78-98.42,29.06-144.01c18.63-44.06,45.32-83.63,79.31-117.62c33.99-33.99,73.56-60.67,117.62-79.31
		C401.58,139.78,450.04,130,500,130 M500,100c-220.91,0-400,179.09-400,400s179.09,400,400,400s400-179.09,400-400
		S720.91,100,500,100L500,100z"/>
	</g>
	<g>
		<g id="Path_12">
			<polygon class="st1" points="493.92,375.31 381.32,656.69 343.8,656.69 231.2,375.31 286.71,375.31 362.56,574.68 438.39,375.31 
					"/>
		</g>
		<g id="Path_13">
			<polygon class="st1" points="748.8,375.31 748.8,656.69 698.78,656.69 580.72,458.88 580.72,656.69 532.23,656.69 532.23,375.31 
			582.28,375.31 700.34,572.35 700.34,375.31 		"/>
		</g>
	</g>
</svg>
