<?xml version="1.0" encoding="utf-8"?>
<!-- Generator: Adobe Illustrator 26.5.0, SVG Export Plug-In . SVG Version: 6.00 Build 0)  -->
<svg version="1.1" id="Layer_1" xmlns="http://www.w3.org/2000/svg" xmlns:xlink="http://www.w3.org/1999/xlink" x="0px" y="0px"
	 viewBox="0 0 1287.1 81.4" style="enable-background:new 0 0 1287.1 81.4;" xml:space="preserve">
<style type="text/css">
	.st0{fill:#42125A;}
</style>
<g>
	<path class="st0" d="M-1.1,81.4l-0.3-4.7l6.8-1.9L33.9,1.8L41-2.5l29.7,77.2l6.9,1.9l-0.4,4.7H51.7l-0.3-4.7l8.5-1.9l-8.3-21.3
		L50,49.2L34.3,10.3l3.2-2.6L22.2,49.3l-1.5,4.2L13,74.7l8.5,1.9l-0.3,4.7H-1.1z M17.4,55.2v-6.8c1.8,0.1,4.3,0.2,7.6,0.3
		c3.3,0.1,7.3,0.1,12,0.1c4.5,0,8.4,0,11.7-0.1c3.3-0.1,5.8-0.2,7.4-0.3v6.8c-3.6-0.1-7-0.2-10.3-0.2c-3.3,0-6.2-0.1-8.8-0.1
		c-2.6,0-5.5,0-8.7,0.1C25.1,55,21.5,55.1,17.4,55.2z"/>
	<path class="st0" d="M83.6,81.4l-0.3-4.6l8.6-1.9c0.1-0.6,0.2-1.4,0.2-2.6c0-1.2,0.1-2.8,0.1-4.8c0-2.1,0.1-4.6,0.1-7.7V48.8
		c0-3.2-0.1-6.4-0.3-9.6c-0.2-3.2-0.4-5.5-0.7-7l-8.9-1.9v-4.2l16.9-4.7l1.7,1.8l-0.7,11.8l0.4,0.1c2.9-5.4,5.7-9.1,8.6-11
		c2.9-1.9,5.5-2.8,7.9-2.8c2,0,3.7,0.5,5.1,1.5c1.3,1,2,2.4,2,4.3c0,1.9-0.7,3.4-2.1,4.4c-1.4,1-3.2,1.5-5.4,1.5
		c-1.6,0-3.1-0.4-4.5-1.1c-1.4-0.7-2.7-1.7-3.8-2.8l1.9,1c-1.8,1.2-3.5,2.9-5.1,5c-1.7,2.1-3.2,4.8-4.6,7.9l0.1,13.4
		c0.1,2,0.2,4.2,0.3,6.7c0.1,2.4,0.2,4.7,0.3,6.8c0.1,2.1,0.2,3.8,0.3,5l12.1,1.7l-0.3,4.8H83.6z"/>
	<path class="st0" d="M154.9,82.5c-5,0-9.6-1.2-13.9-3.5c-4.3-2.3-7.7-5.7-10.2-10.1c-2.5-4.4-3.7-9.8-3.7-16.1
		c0-6.1,1.3-11.5,4-16.3c2.7-4.8,6.3-8.5,10.9-11.3c4.6-2.8,9.7-4.2,15.5-4.2c4.1,0,7.4,0.5,10,1.5s4.6,2.2,6,3.8
		c1.3,1.6,2,3.2,2,4.8c0,1.4-0.4,2.5-1.2,3.5c-0.8,0.9-2,1.4-3.7,1.4c-1.4,0-2.6-0.3-3.5-0.9c-1-0.6-2.2-1.7-3.8-3.3l-6.2-6.8
		l4.3,1.4c-3.9-0.8-7.6-0.5-11.3,1c-3.7,1.5-6.7,4.2-9.1,8.2c-2.4,3.9-3.6,9-3.6,15.2c0,7.5,1.9,13.3,5.8,17.3
		c3.9,4.1,8.7,6.1,14.4,6.1c3.8,0,7-0.6,9.5-1.9c2.5-1.3,5-3.4,7.3-6.2l3.5,2.9c-2.6,4.5-5.8,7.9-9.6,10.1
		C164.4,81.4,160,82.5,154.9,82.5z"/>
	<path class="st0" d="M181.2,81.4l-0.3-4.6l8.6-1.9c0.2-1.1,0.3-2.7,0.3-4.6c0-2,0.1-4.7,0.1-8.2c0-3.5,0.1-8.1,0.1-13.7V31.1
		c0-3.1,0-6.6-0.1-10.4c0-3.8-0.1-7.4-0.1-10.9c0-3.5-0.1-6.5-0.1-9c0-2.5-0.1-4.1-0.1-4.7l-10.3-1.4l-0.3-3.9l17.7-5.4l2.2,1.8
		c-0.1,2.9-0.2,5.8-0.2,8.7c0,2.9-0.1,6.1-0.1,9.4c0,3.4-0.1,7.1-0.1,11.2c0,4.1-0.1,8.8-0.1,14.2l0.4,0.1c3.3-3.5,6.5-6,9.6-7.5
		c3-1.5,6.4-2.2,10-2.2c3.2,0,6.3,0.8,9.3,2.5c3,1.7,5.4,4.2,7.3,7.8c1.9,3.5,2.9,8,2.9,13.6v15.2c0,3.4,0.1,6.4,0.3,9.1
		c0.2,2.6,0.4,4.5,0.6,5.6l8.6,1.9l-0.3,4.6h-25.9l-0.3-4.6l8-1.9c0.1-0.7,0.2-1.6,0.2-2.6c0-1,0.1-2.4,0.1-4.1
		c0-1.7,0.1-3.9,0.1-6.7V45.6c0-4.2-0.7-7.5-2.1-10c-1.4-2.5-3.2-4.4-5.4-5.5c-2.2-1.2-4.6-1.7-7.1-1.7c-3.2,0-6.2,0.8-9,2.4
		c-2.8,1.6-5.2,3.9-7.2,6.7v21.1c0,4.4,0.1,8.1,0.2,10.9c0.1,2.9,0.3,4.7,0.3,5.4l8.6,1.9l-0.3,4.6H181.2z"/>
	<path class="st0" d="M254,81.4l-0.3-4.7l9.3-1.8c0.1-0.4,0.2-1,0.2-1.8c0-0.8,0.1-2.3,0.1-4.4c0-2.1,0.1-5.1,0.1-8.9l0.1-8.7
		c0-4.2-0.1-8.1-0.3-11.5c-0.2-3.4-0.4-5.9-0.7-7.3l-9.3-1.9v-4.2l18-4.7l1.5,1.7c-0.2,2.9-0.3,5.7-0.5,8.4
		c-0.1,2.7-0.2,5.9-0.2,9.6v17.5c0,4.5,0.1,8.2,0.2,11c0.1,2.8,0.3,4.6,0.3,5.3l9.3,1.8l-0.3,4.7H254z M267.8,4.5
		c-2,0-3.8-0.7-5.4-2.1c-1.6-1.4-2.4-3.1-2.4-5.3c0-2,0.8-3.8,2.4-5.2c1.6-1.4,3.4-2.1,5.4-2.1c2,0,3.8,0.7,5.3,2.1
		c1.5,1.4,2.2,3.2,2.2,5.2c0,2.1-0.7,3.9-2.2,5.3C271.6,3.8,269.8,4.5,267.8,4.5z"/>
	<path class="st0" d="M310.1,81.9l-21.9-53.1l-6.5-2.1l0.3-4.6h23.3l0.3,4.6l-7.1,2.1l17.7,44.3l-4,0.1l18.7-46.1l3.5,8.3
		l-20.6,46.4H310.1z M349.5,81.9l-20.6-53.1l-7.1-2.1l0.3-4.6h23.1l0.3,4.6l-7.2,2.1l16.6,44.3l-3.5,0.1l16.9-44.5l-7.2-2.1l0.3-4.6
		h21.1l0.3,4.6l-6.5,2.1l-23.1,53.1H349.5z"/>
	<path class="st0" d="M445.2,72.5l8.7,2.2V79l-16.5,3.7l-1.5-1.7l0.1-8.5l-0.4-0.1c-2.8,3.7-5.5,6.3-8.2,7.7
		c-2.7,1.4-5.7,2.1-8.9,2.1c-6,0-11.1-1.8-15.3-5.5c-4.2-3.7-6.3-9.3-6.3-16.8V48c0-2.8,0-5.5-0.1-8.1c-0.1-2.6-0.2-5.2-0.4-7.7
		l-9.4-1.9v-4.2l17-4.7l1.9,2.1c-0.1,2.9-0.2,5.8-0.3,8.9c-0.1,3-0.1,6.3-0.1,9.7l-0.1,16.1c0,6.1,1.4,10.4,4.2,12.9
		c2.8,2.5,6.4,3.7,10.9,3.7c2.6,0,5.3-0.7,8.1-2.1c2.8-1.4,5.2-3.7,7.3-7.1V48.9c0-2,0-4.1-0.1-6.2c0-2.1-0.1-4-0.2-5.9
		c-0.1-1.8-0.2-3.4-0.4-4.7l-10.1-1.9v-4.2l17.9-4.7l1.7,1.8c-0.1,2.8-0.2,5.2-0.2,7.1c0,2-0.1,3.9-0.1,5.8c0,1.8,0,4,0,6.4V52
		c0,5.9,0.1,10.5,0.3,13.6C444.8,68.8,445,71.1,445.2,72.5z"/>
	<path class="st0" d="M460.8,81.4l-0.3-4.6l8.6-1.9c0.1-0.8,0.2-1.7,0.2-2.6c0-0.9,0.1-2.4,0.1-4.3c0-1.9,0.1-4.7,0.1-8.2l0.1-10.9
		c0.1-2,0.1-4.1,0-6.3c-0.1-2.2-0.2-4.2-0.4-6.1c-0.2-1.9-0.4-3.3-0.6-4.2l-8.9-1.9v-4.2l16.9-4.7l1.9,2.1l-0.7,7.5l0.4,0.1
		c2.9-3.6,5.8-6.2,8.8-7.7c3-1.5,6.1-2.3,9.4-2.3c3.1,0,6.2,0.9,9.3,2.6c3,1.7,5.6,4.4,7.6,8c2,3.6,3,8.2,3,13.9v14.7
		c0,3.4,0.1,6.4,0.3,9.1c0.2,2.6,0.4,4.5,0.6,5.6l8.5,1.9l-0.3,4.6h-25.4l-0.3-4.6l7.6-1.9c0.1-0.7,0.2-1.6,0.2-2.6
		c0-1,0.1-2.4,0.1-4.1c0-1.7,0.1-3.9,0.1-6.7V45.5c0-4.1-0.7-7.4-2-9.9c-1.3-2.5-3.1-4.4-5.3-5.5c-2.2-1.2-4.4-1.7-6.7-1.7
		c-3,0-5.8,0.7-8.5,2.1c-2.7,1.4-5.1,3.8-7.2,7v21.1c0,4.5,0.1,8.1,0.2,10.7c0.1,2.6,0.3,4.5,0.3,5.7l8.3,1.9l-0.3,4.6H460.8z
		 M538,81.4l-0.3-4.6l7.9-1.9c0.1-0.7,0.2-1.6,0.2-2.6c0-1,0.1-2.3,0.2-4.1c0.1-1.8,0.1-4,0.1-6.8l0.1-15.9c0-4.2-0.8-7.6-2.3-10.1
		c-1.5-2.5-3.4-4.3-5.5-5.4c-2.2-1.1-4.3-1.7-6.4-1.7c-3.4,0-6.5,0.9-9.4,2.6c-2.8,1.7-5.4,4.3-7.7,7.8l-2.2-4.9
		c3.2-4.5,6.7-7.8,10.3-9.8c3.6-2,7.4-3,11.4-3c3.7,0,7.1,0.9,10.2,2.6c3.1,1.8,5.6,4.3,7.4,7.8c1.8,3.4,2.8,7.6,2.8,12.6v16.1
		c0,3.4,0.1,6.4,0.2,9.1s0.3,4.5,0.5,5.6l8.6,1.9l-0.3,4.6H538z"/>
	<path class="st0" d="M593.6,113.4l-2.4-4.2c4.8-2.8,8.4-6.1,10.7-9.8c2.3-3.8,3.5-8.9,3.5-15.4l0.1-36.9c0-4.1-0.1-7.5-0.3-10.2
		c-0.2-2.7-0.4-4.4-0.6-4.9l-9.3-1.8v-4.2l18-4.7l1.5,1.8c-0.2,2.3-0.3,4.8-0.5,7.4s-0.2,6-0.2,10l0.1,41.6c0,3.4-0.3,6.6-1,9.5
		c-0.7,2.9-1.8,5.7-3.5,8.2c-1.6,2.6-3.7,5-6.4,7.2C600.8,109.3,597.5,111.4,593.6,113.4z M610,4.5c-2,0-3.8-0.7-5.4-2.1
		c-1.6-1.4-2.4-3.1-2.4-5.3c0-2,0.8-3.8,2.4-5.2c1.6-1.4,3.4-2.1,5.4-2.1c2,0,3.8,0.7,5.3,2.1c1.5,1.4,2.2,3.2,2.2,5.2
		c0,2.1-0.7,3.9-2.2,5.3C613.8,3.8,612,4.5,610,4.5z"/>
	<path class="st0" d="M646.4,82.5c-3.5,0-6.7-0.7-9.5-2.1c-2.8-1.4-5.1-3.2-6.7-5.4c-1.7-2.2-2.5-4.6-2.5-7.1c0-3,1-5.6,3-7.6
		c2-2,5.4-3.8,10.1-5.3l20.9-7.2v-7.6c0-2.5-0.7-4.7-2.1-6.7c-1.4-1.9-3.3-3.5-5.8-4.6s-5.1-1.7-8.2-1.7c-2.5,0-4.2,0.5-5.1,1.5
		c-0.9,1-1.4,3.1-1.6,6.2l-0.3,5c-3,0.8-5.5,0.8-7.6-0.2c-2.1-1-3.1-2.5-3.1-4.5c0-1.4,0.6-2.9,1.9-4.4c1.2-1.6,2.9-3,4.9-4.4
		c2-1.3,4.3-2.5,6.7-3.5c2.4-1,5-1.6,7.6-2c6.4,0,11.5,1.8,15.5,5.3c4,3.5,6,8.1,6.1,13.9l-0.3,24.4c0,1.5,0.1,3.1,0.2,4.9
		c0.1,1.8,0.3,3.1,0.6,3.8l8.7,1.7v3.7l-6.2,2.2c-1.2,0.5-2.3,0.8-3.3,1.1c-1,0.3-1.8,0.4-2.4,0.4c-2.7,0-4.3-1.5-5-4.6l-1.2-5.1
		l1.9-0.3c-3.1,3.4-6.1,5.9-8.9,7.6C652.1,81.7,649.2,82.5,646.4,82.5z M649,75.5c2.5,0,4.8-0.6,6.9-1.7s4-2.8,5.9-5.1v-15l-17.3,5
		c-2.2,0.6-3.8,1.5-4.8,2.7c-1,1.2-1.5,2.8-1.5,4.8c0,2.3,1.1,4.4,3.3,6.4C643.7,74.6,646.2,75.5,649,75.5z"/>
	<path class="st0" d="M687.1,81.4l-0.3-4.6l7.9-1.9c0.1-0.9,0.2-2.4,0.3-4.3c0.1-1.9,0.2-4.5,0.2-7.6c0-3.1,0.1-6.9,0.1-11.2V30.9
		c0-3.4,0-7-0.1-10.9c0-3.8-0.1-7.5-0.1-10.9c0-3.4-0.1-6.3-0.1-8.7c0-2.4-0.1-3.9-0.2-4.5l-10.3-1.4l-0.3-3.9l17.9-5.4l2.4,1.8
		c-0.2,3.2-0.3,6.4-0.3,9.6c0,3.1-0.1,6.3-0.1,9.6c0,3.2-0.1,6.6-0.1,10c0,3.5,0,7.1,0,11L703.7,62c0,2.4,0,4.5,0.1,6.2
		c0.1,1.8,0.2,3.2,0.3,4.3c0.1,1.1,0.1,1.9,0.1,2.4l8.6,1.9l-0.3,4.6H687.1z M745.4,81.4h-13.7c-1.7-2.3-2.9-4-3.8-5
		c-0.9-1-1.8-2-2.7-2.9l-19.7-21.3h-4l0.1-2.9l5.7-1.5L726,28.6l-9.1-1.7l0.3-4.7h27l0.4,4.7l-9.1,1.7l-25.4,23.3l2.4-4.7l18.8,20.1
		c0.9,1.1,2.2,2.4,3.8,4c1.6,1.6,3,2.9,4.2,4l6.5,1.4L745.4,81.4z"/>
	<path class="st0" d="M776.3,82.5c-5.9,0-11.1-1.3-15.5-3.9c-4.4-2.6-7.8-6.2-10.2-10.9c-2.4-4.7-3.6-10-3.6-16c0-6.1,1.3-11.4,4-16
		c2.6-4.6,6.2-8.2,10.7-10.7c4.5-2.6,9.5-3.9,15-3.9c5.6,0,10.5,1.2,14.7,3.7s7.4,6,9.7,10.6c2.3,4.6,3.5,9.9,3.5,16
		c0,5.7-1.2,10.9-3.7,15.7s-5.9,8.5-10.2,11.2C786.4,81.1,781.6,82.5,776.3,82.5z M777.6,76.6c3.4,0,6.4-1,8.9-3
		c2.5-2,4.5-4.8,5.9-8.2c1.4-3.5,2.1-7.5,2.1-12c0-7.9-1.8-14.4-5.3-19.3c-3.5-4.9-8.1-7.4-13.7-7.4c-5.4,0-9.7,2.1-13,6.4
		c-3.3,4.3-5,10-5,17.1c0,5.3,0.9,9.9,2.6,13.9c1.7,4,4.1,7.1,7.1,9.3C770.3,75.5,773.7,76.6,777.6,76.6z"/>
	<path class="st0" d="M838.8,111.8l-0.3-4.6l8.6-1.9c0-0.5,0-1.2,0.1-2.2c0-1,0.1-2.4,0.1-4.2c0-1.8,0.1-3.9,0.1-6.3
		c0-2.4,0.1-5.3,0.1-8.7l0.3-36c0-2.9-0.1-5.8-0.3-8.9c-0.2-3.1-0.4-5.4-0.7-6.9l-8.9-1.9v-4.2l16.9-4.7l1.9,2.1l-0.7,7.3l0.4,0.1
		c2.8-3.3,5.7-5.8,8.7-7.4c3-1.6,6.3-2.4,9.9-2.4c5.3,0,9.9,1.3,13.9,3.9c4,2.6,7.1,6.1,9.3,10.5c2.2,4.4,3.3,9.5,3.3,15.1
		c0,6.1-1.4,11.5-4.2,16.4c-2.8,4.8-6.5,8.6-11.2,11.3c-4.7,2.7-9.9,4.1-15.6,4.1c-2.4,0-4.9-0.2-7.4-0.7c-2.5-0.5-4.8-1.1-6.9-1.9
		v10.9c0,3.7,0.1,6.7,0.2,9.1c0.1,2.4,0.3,4.2,0.3,5.6l11.4,1.5l-0.3,5H838.8z M871.2,76.4c4,0,7.4-0.9,10.4-2.8
		c3-1.9,5.3-4.6,7-8.2c1.7-3.6,2.6-7.8,2.7-12.7c0.1-4.3-0.6-8.3-2.2-11.8c-1.6-3.6-3.8-6.4-6.7-8.7c-2.9-2.2-6.2-3.3-10-3.3
		c-3.1,0-6.1,0.7-8.7,2.2c-2.7,1.5-5.1,3.7-7.3,6.7v34.1c1.9,1.4,4.2,2.5,6.9,3.3S868.5,76.4,871.2,76.4z"/>
	<path class="st0" d="M907.2,81.4l-0.3-4.6l8.6-1.9c0.1-0.6,0.2-1.4,0.2-2.6c0-1.2,0.1-2.8,0.1-4.8c0-2.1,0.1-4.6,0.1-7.7V48.8
		c0-3.2-0.1-6.4-0.3-9.6c-0.2-3.2-0.4-5.5-0.7-7l-8.9-1.9v-4.2l16.9-4.7l1.7,1.8L924,34.9l0.4,0.1c2.9-5.4,5.7-9.1,8.6-11
		c2.9-1.9,5.5-2.8,7.9-2.8c2,0,3.7,0.5,5.1,1.5c1.3,1,2,2.4,2,4.3c0,1.9-0.7,3.4-2.1,4.4c-1.4,1-3.2,1.5-5.4,1.5
		c-1.6,0-3.1-0.4-4.5-1.1c-1.4-0.7-2.7-1.7-3.8-2.8l1.9,1c-1.8,1.2-3.5,2.9-5.1,5c-1.7,2.1-3.2,4.8-4.6,7.9l0.1,13.4
		c0.1,2,0.2,4.2,0.3,6.7c0.1,2.4,0.2,4.7,0.3,6.8c0.1,2.1,0.2,3.8,0.3,5l12.1,1.7l-0.3,4.8H907.2z"/>
	<path class="st0" d="M980.3,82.5c-5.9,0-11.1-1.3-15.5-3.9c-4.4-2.6-7.8-6.2-10.2-10.9c-2.4-4.7-3.6-10-3.6-16c0-6.1,1.3-11.4,4-16
		c2.6-4.6,6.2-8.2,10.7-10.7c4.5-2.6,9.5-3.9,15-3.9c5.6,0,10.5,1.2,14.7,3.7s7.4,6,9.7,10.6c2.3,4.6,3.5,9.9,3.5,16
		c0,5.7-1.2,10.9-3.7,15.7s-5.9,8.5-10.2,11.2C990.4,81.1,985.6,82.5,980.3,82.5z M981.6,76.6c3.4,0,6.4-1,8.9-3
		c2.5-2,4.5-4.8,5.9-8.2c1.4-3.5,2.1-7.5,2.1-12c0-7.9-1.8-14.4-5.3-19.3c-3.5-4.9-8.1-7.4-13.7-7.4c-5.4,0-9.7,2.1-13,6.4
		c-3.3,4.3-5,10-5,17.1c0,5.3,0.9,9.9,2.6,13.9c1.7,4,4.1,7.1,7.1,9.3C974.2,75.5,977.7,76.6,981.6,76.6z"/>
	<path class="st0" d="M1011.1,113.4l-2.4-4.2c4.8-2.8,8.4-6.1,10.7-9.8c2.3-3.8,3.5-8.9,3.5-15.4l0.1-36.9c0-4.1-0.1-7.5-0.3-10.2
		c-0.2-2.7-0.4-4.4-0.6-4.9l-9.3-1.8v-4.2l18-4.7l1.5,1.8c-0.2,2.3-0.3,4.8-0.5,7.4s-0.2,6-0.2,10l0.1,41.6c0,3.4-0.3,6.6-1,9.5
		c-0.7,2.9-1.8,5.7-3.5,8.2c-1.6,2.6-3.7,5-6.4,7.2C1018.3,109.3,1015,111.4,1011.1,113.4z M1027.5,4.5c-2,0-3.8-0.7-5.4-2.1
		c-1.6-1.4-2.4-3.1-2.4-5.3c0-2,0.8-3.8,2.4-5.2c1.6-1.4,3.4-2.1,5.4-2.1c2,0,3.8,0.7,5.3,2.1c1.5,1.4,2.2,3.2,2.2,5.2
		c0,2.1-0.7,3.9-2.2,5.3C1031.3,3.8,1029.5,4.5,1027.5,4.5z"/>
	<path class="st0" d="M1071.8,82.5c-5.1,0-9.7-1.2-14-3.5c-4.2-2.3-7.6-5.7-10.1-10.1c-2.5-4.4-3.7-9.7-3.7-15.9
		c0-6.7,1.3-12.4,3.9-17.1c2.6-4.8,6-8.4,10.3-11c4.2-2.6,8.8-3.8,13.6-3.7c6.9,0.1,12.4,2.4,16.4,6.9c4,4.5,6,11.2,6,20.1v2.2
		h-43.2v-5.7h35.5l-1.4,1.4v-2.5c0-5.5-1.2-9.8-3.7-12.8c-2.5-3-6-4.5-10.5-4.5c-2.7,0-5.3,0.8-7.8,2.4c-2.5,1.6-4.6,4-6.2,7.3
		c-1.6,3.2-2.4,7.3-2.4,12.2v1.4c0,7.9,1.9,14,5.8,18.3c3.8,4.3,8.7,6.5,14.6,6.5c3.4,0,6.4-0.6,8.9-1.9c2.5-1.3,5-3.4,7.4-6.4
		l3.3,2.9c-2.6,4.6-5.8,8-9.6,10.3C1080.7,81.4,1076.5,82.5,1071.8,82.5z"/>
	<path class="st0" d="M1099.8,81.4l-0.3-4.6l7.9-1.9c0.1-0.9,0.2-2.4,0.3-4.3c0.1-1.9,0.2-4.5,0.2-7.6c0-3.1,0.1-6.9,0.1-11.2V30.9
		c0-3.4,0-7-0.1-10.9c0-3.8-0.1-7.5-0.1-10.9c0-3.4-0.1-6.3-0.1-8.7c0-2.4-0.1-3.9-0.2-4.5l-10.3-1.4l-0.3-3.9l17.9-5.4l2.4,1.8
		c-0.2,3.2-0.3,6.4-0.3,9.6c0,3.1-0.1,6.3-0.1,9.6c0,3.2-0.1,6.6-0.1,10c0,3.5,0,7.1,0,11l-0.1,34.6c0,2.4,0,4.5,0.1,6.2
		c0.1,1.8,0.2,3.2,0.3,4.3c0.1,1.1,0.1,1.9,0.1,2.4l8.6,1.9l-0.3,4.6H1099.8z M1158.1,81.4h-13.7c-1.7-2.3-2.9-4-3.8-5
		c-0.9-1-1.8-2-2.7-2.9l-19.7-21.3h-4l0.1-2.9l5.7-1.5l18.7-19.1l-9.1-1.7l0.3-4.7h27l0.4,4.7l-9.1,1.7l-25.4,23.3l2.4-4.7
		l18.8,20.1c0.9,1.1,2.2,2.4,3.8,4c1.6,1.6,3,2.9,4.2,4l6.5,1.4L1158.1,81.4z"/>
	<path class="st0" d="M1206.1,73.6c-1.8,2.9-4.2,5-7.1,6.5c-2.9,1.5-5.8,2.2-8.9,2.2c-5.4,0-9.8-1.7-13.2-5
		c-3.5-3.3-5.2-8.3-5.2-14.8l0.3-33.8h-9.7v-2.5l16.4-15.7h2.1l-0.3,15l-0.1,34.5c0,5,1.1,8.8,3.2,11.3c2.1,2.5,5.2,3.8,9.1,3.8
		c2.2,0,4.3-0.5,6.2-1.4c1.9-0.9,3.5-2.1,4.9-3.5L1206.1,73.6z M1176.5,28.7v-6.4h25.4v6.4H1176.5z"/>
</g>
</svg>
