<svg xmlns="http://www.w3.org/2000/svg" width="320" height="131.782" viewBox="0 0 320 131.782">
  <g id="Archiveasproject" transform="translate(-390.5 -211.2)">
    <path id="Pfad_38" data-name="Pfad 38" d="M455.287,260.092l4.607,1.056-.192,2.5H445.689l-.192-2.5,4.319-1.056a6.356,6.356,0,0,0,.1-1.44c0-.576.1-1.248.1-2.208v-12.19a11.555,11.555,0,0,0-1.152-5.471,7.19,7.19,0,0,0-2.879-2.975,7.606,7.606,0,0,0-3.839-.96,9.883,9.883,0,0,0-4.9,1.344,12.865,12.865,0,0,0-3.935,3.647v11.422c0,2.3,0,4.319.1,5.855s.1,2.591.192,2.975l4.607,1.056-.192,2.5H423.805l-.192-2.5,4.607-1.056a15.471,15.471,0,0,0,.192-2.5c0-1.056.1-2.592.1-4.415V231.873c0-1.536-.1-3.071-.1-4.607v-4.031q-.576-.144-1.44-.288a14.859,14.859,0,0,0-2.112-.1H414.5a16.181,16.181,0,0,0-2.4.192v2.591c0,1.344-.1,2.975-.1,4.9v16.7c0,3.263,0,6.047.1,8.446s.1,3.839.192,4.319l6.239.864-.1,2.687H400.386l-.192-2.687,6.335-.864c0-.48,0-1.92.1-4.319s.1-5.183.1-8.446V223.043a20.873,20.873,0,0,0-2.5-.1h-6.239a5.665,5.665,0,0,0-1.344.192l-3.263,8.542-2.879-.48,1.536-11.806c.768.1,1.344.1,1.92.192a8.255,8.255,0,0,0,1.536.1h33.593a17.238,17.238,0,0,0,2.112-.192c.768-.1,1.536-.1,2.4-.192v10.27c0,2.016,0,4.127-.1,6.719l.192.1a18.138,18.138,0,0,1,5.183-4.031,12.449,12.449,0,0,1,5.279-1.152,10.6,10.6,0,0,1,5.087,1.344,9.925,9.925,0,0,1,3.935,4.223,15.1,15.1,0,0,1,1.536,7.391v8.254c0,1.824.1,3.455.192,4.9A16.158,16.158,0,0,0,455.287,260.092Z" transform="translate(0 -0.326)" fill="#222"/>
    <path id="Pfad_39" data-name="Pfad 39" d="M479.069,264.709a15.609,15.609,0,0,1-7.582-1.92,13.642,13.642,0,0,1-5.471-5.471A17.418,17.418,0,0,1,464,248.68a18.179,18.179,0,0,1,2.112-9.214,15.188,15.188,0,0,1,5.567-5.951,12.657,12.657,0,0,1,7.391-2.016,11.613,11.613,0,0,1,8.83,3.743c2.112,2.5,3.263,6.047,3.263,10.846v1.152H467.743v-3.071h19.2l-.768.768v-1.344q0-4.463-2.016-6.911a6.936,6.936,0,0,0-5.663-2.4,7.835,7.835,0,0,0-4.223,1.344,9.788,9.788,0,0,0-3.359,3.935,14.763,14.763,0,0,0-1.344,6.623v.768c0,4.223,1.056,7.582,3.071,9.886a10.283,10.283,0,0,0,7.87,3.551,10.717,10.717,0,0,0,4.8-1.056,12.933,12.933,0,0,0,4.031-3.455l1.824,1.536a15.363,15.363,0,0,1-5.183,5.567A14.736,14.736,0,0,1,479.069,264.709Z" transform="translate(-2.954 -0.816)" fill="#222"/>
    <path id="Pfad_40" data-name="Pfad 40" d="M506.592,263.5l-.192-2.591,3.647-1.056L525.5,220.4l3.839-2.3,16.029,41.752,3.743,1.056-.192,2.591H535.1l-.192-2.591,4.607-1.056L535,248.334l-.864-2.208-8.446-21.116,1.728-1.44-8.35,22.556-.864,2.208-4.127,11.518,4.607,1.056-.192,2.591Zm9.982-14.109v-3.647c.96.1,2.3.1,4.127.192,1.728.1,3.935.1,6.527.1,2.5,0,4.607,0,6.335-.1s3.071-.1,4.031-.192v3.647c-1.92-.1-3.839-.1-5.567-.1h-9.5C520.8,249.294,518.781,249.294,516.574,249.39Z" transform="translate(-4.658 -0.277)" fill="#222"/>
    <path id="Pfad_41" data-name="Pfad 41" d="M553.068,264.042l-.192-2.5,4.607-1.056a5.1,5.1,0,0,0,.1-1.344c0-.672.1-1.536.1-2.592V246.477c0-1.728-.1-3.455-.192-5.183a23.566,23.566,0,0,0-.384-3.743l-4.8-1.056v-2.208l9.118-2.591.864.96-.384,6.335.192.1c1.536-2.975,3.071-4.9,4.607-5.951a7.647,7.647,0,0,1,4.319-1.536,4.573,4.573,0,0,1,2.784.864,2.655,2.655,0,0,1,1.056,2.3,2.791,2.791,0,0,1-1.152,2.4,4.664,4.664,0,0,1-2.879.864,5.2,5.2,0,0,1-2.4-.576,6.26,6.26,0,0,1-2.016-1.536l1.056.48a12.159,12.159,0,0,0-2.783,2.687,22.307,22.307,0,0,0-2.5,4.319l.1,7.295c.1,1.056.1,2.3.192,3.647s.1,2.5.192,3.647.1,2.016.192,2.687l6.527.864-.192,2.591H553.068Z" transform="translate(-6.503 -0.82)" fill="#222"/>
    <path id="Pfad_42" data-name="Pfad 42" d="M591.469,264.705a16.169,16.169,0,0,1-7.583-1.92,13.641,13.641,0,0,1-5.471-5.471,17.544,17.544,0,0,1-2.016-8.734,17.988,17.988,0,0,1,2.208-8.83,17.132,17.132,0,0,1,5.855-6.143,15.316,15.316,0,0,1,8.35-2.208,17.437,17.437,0,0,1,5.471.768,8.258,8.258,0,0,1,3.263,2.016,3.783,3.783,0,0,1,1.056,2.591,2.767,2.767,0,0,1-.672,1.92,2.461,2.461,0,0,1-2.016.768,4.058,4.058,0,0,1-1.92-.48,9.186,9.186,0,0,1-2.016-1.728l-3.359-3.647,2.3.768a9.673,9.673,0,0,0-6.143.576,10.315,10.315,0,0,0-4.9,4.415,15.247,15.247,0,0,0-1.92,8.254c0,4.031,1.056,7.2,3.167,9.406a10.3,10.3,0,0,0,7.774,3.263,12.161,12.161,0,0,0,5.183-1.056,12.479,12.479,0,0,0,3.935-3.359l1.92,1.536a14.311,14.311,0,0,1-5.183,5.471A14.94,14.94,0,0,1,591.469,264.705Z" transform="translate(-7.472 -0.812)" fill="#222"/>
    <path id="Pfad_43" data-name="Pfad 43" d="M605.748,263.222l-.192-2.5,4.607-1.056a15.46,15.46,0,0,0,.192-2.5c0-1.056.1-2.591.1-4.415V230.4c0-2.016-.1-4.031-.1-5.951s-.1-3.551-.1-4.9v-2.591l-5.567-.768-.192-2.112,9.6-2.879,1.152.96c-.1,1.536-.1,3.071-.1,4.7,0,1.536-.1,3.263-.1,5.087s-.1,3.839-.1,6.047v7.678l.192.1a18.137,18.137,0,0,1,5.183-4.031,12.566,12.566,0,0,1,5.375-1.152,10.239,10.239,0,0,1,4.991,1.344,9.925,9.925,0,0,1,3.935,4.223,15.1,15.1,0,0,1,1.536,7.391V251.8c0,1.824.1,3.455.192,4.895s.192,2.4.288,3.071l4.607,1.056-.192,2.5H627.056l-.192-2.5,4.319-1.056a6.358,6.358,0,0,0,.1-1.44c0-.576.1-1.248.1-2.208v-12.19a11.555,11.555,0,0,0-1.152-5.471,7.19,7.19,0,0,0-2.879-2.975,7.606,7.606,0,0,0-3.839-.96,9.883,9.883,0,0,0-4.9,1.344,12.865,12.865,0,0,0-3.935,3.647v11.422c0,2.4,0,4.415.1,5.951s.1,2.5.192,2.879l4.607,1.056-.192,2.5H605.748Z" transform="translate(-8.601 0)" fill="#222"/>
    <path id="Pfad_44" data-name="Pfad 44" d="M645.58,263.326l-.192-2.591,4.991-.96a2.407,2.407,0,0,0,.1-.96c0-.48.1-1.248.1-2.4v-4.8l.1-4.7c0-2.3-.1-4.415-.192-6.239a25.329,25.329,0,0,0-.384-3.935l-4.991-1.056v-2.208l9.79-2.591.864.864c-.1,1.536-.192,3.071-.288,4.511s-.1,3.167-.1,5.183v9.406c0,2.5,0,4.415.1,5.951s.1,2.5.192,2.879l4.991.96-.192,2.592H645.58Zm7.487-41.56a4.064,4.064,0,0,1-2.879-1.152,3.65,3.65,0,0,1-1.248-2.879,3.591,3.591,0,0,1,1.248-2.783,4.175,4.175,0,0,1,5.759,0,3.844,3.844,0,0,1,1.152,2.783,3.907,3.907,0,0,1-1.152,2.879A4.233,4.233,0,0,1,653.066,221.766Z" transform="translate(-10.233 -0.104)" fill="#222"/>
    <path id="Pfad_45" data-name="Pfad 45" d="M676.4,264.346l-13.149-28.7L659.7,234.5l.192-2.5h13.341l.192,2.5-4.607,1.152,10.75,24-1.92.1,9.886-24.091-4.607-1.152.192-2.5h12.094l.192,2.5-3.551,1.152-13.245,28.7Z" transform="translate(-10.82 -0.836)" fill="#222"/>
    <path id="Pfad_46" data-name="Pfad 46" d="M710.669,264.709a15.609,15.609,0,0,1-7.583-1.92,13.642,13.642,0,0,1-5.471-5.471,17.418,17.418,0,0,1-2.016-8.638,18.178,18.178,0,0,1,2.112-9.214,15.188,15.188,0,0,1,5.567-5.951,12.657,12.657,0,0,1,7.391-2.016,11.613,11.613,0,0,1,8.83,3.743c2.112,2.5,3.263,6.047,3.263,10.846v1.152H699.343v-3.071h19.2l-.768.768v-1.344q0-4.463-2.016-6.911a6.936,6.936,0,0,0-5.663-2.4,7.836,7.836,0,0,0-4.223,1.344,9.788,9.788,0,0,0-3.359,3.935,14.762,14.762,0,0,0-1.344,6.623v.768c0,4.223,1.056,7.582,3.071,9.886a10.283,10.283,0,0,0,7.87,3.551,10.717,10.717,0,0,0,4.8-1.056,12.933,12.933,0,0,0,4.031-3.455l1.824,1.536a15.362,15.362,0,0,1-5.183,5.567A14.735,14.735,0,0,1,710.669,264.709Z" transform="translate(-12.263 -0.816)" fill="#222"/>
    <path id="Pfad_47" data-name="Pfad 47" d="M404.274,329.705a11.429,11.429,0,0,1-5.183-1.152,10.143,10.143,0,0,1-3.647-2.879,6.439,6.439,0,0,1-1.344-3.839,5.885,5.885,0,0,1,1.632-4.127,14.227,14.227,0,0,1,5.471-2.879l11.326-3.935v-4.127a6.108,6.108,0,0,0-1.152-3.647,7.858,7.858,0,0,0-3.071-2.5,10.981,10.981,0,0,0-4.415-.864,3.572,3.572,0,0,0-2.783.864,5.928,5.928,0,0,0-.864,3.359l-.192,2.687a6,6,0,0,1-4.127-.1,2.526,2.526,0,0,1-1.728-2.4,4.043,4.043,0,0,1,1.056-2.4,11.092,11.092,0,0,1,2.687-2.4,18.67,18.67,0,0,1,3.647-1.92,20.038,20.038,0,0,1,4.127-1.056,12.35,12.35,0,0,1,8.446,2.879,9.725,9.725,0,0,1,3.263,7.486l-.192,13.245c0,.768,0,1.728.1,2.687a6.71,6.71,0,0,0,.384,2.016l4.7.864v2.016l-3.359,1.152a9.042,9.042,0,0,1-1.728.576,7.53,7.53,0,0,1-1.344.192c-1.44,0-2.3-.864-2.687-2.5l-.672-2.783,1.056-.192a28.427,28.427,0,0,1-4.8,4.127A8.016,8.016,0,0,1,404.274,329.705Zm1.44-3.743a8.253,8.253,0,0,0,3.743-.864,9.479,9.479,0,0,0,3.167-2.783v-8.062l-9.406,2.687a4.847,4.847,0,0,0-2.591,1.44,3.8,3.8,0,0,0-.768,2.591,4.465,4.465,0,0,0,1.824,3.455A5.9,5.9,0,0,0,405.714,325.962Z" transform="translate(-0.145 -3.424)" fill="#222"/>
    <path id="Pfad_48" data-name="Pfad 48" d="M437.262,329.709a20.626,20.626,0,0,1-5.375-.672,17.055,17.055,0,0,1-4.7-1.728l-.384-7.774h3.359l1.536,5.375a9.6,9.6,0,0,0,5.951,1.92,7.02,7.02,0,0,0,4.319-1.344,4.158,4.158,0,0,0,1.728-3.551,4.862,4.862,0,0,0-1.536-3.647,18.574,18.574,0,0,0-5.663-3.263,27.882,27.882,0,0,1-7.391-4.415,7.664,7.664,0,0,1-.576-9.886,8.826,8.826,0,0,1,4.223-3.071,17.628,17.628,0,0,1,6.239-1.152,30.9,30.9,0,0,1,4.127.288,14.794,14.794,0,0,1,3.551.864l.864,7.582h-3.167l-1.92-4.991a4.527,4.527,0,0,0-1.824-.672,8.18,8.18,0,0,0-2.208-.288A6.92,6.92,0,0,0,434,300.627a4.228,4.228,0,0,0-1.632,3.359,4.643,4.643,0,0,0,1.728,3.743,40.237,40.237,0,0,0,6.047,3.647,25.25,25.25,0,0,1,6.911,4.415,7.247,7.247,0,0,1,1.92,5.183,7.589,7.589,0,0,1-3.359,6.335A14.1,14.1,0,0,1,437.262,329.709Z" transform="translate(-1.459 -3.428)" fill="#222"/>
    <path id="Pfad_49" data-name="Pfad 49" d="M468.78,328.555l-.192-2.591,4.319-1.056a3.311,3.311,0,0,0,.1-1.152c0-.576.1-1.632.1-3.071v-6.239l.1-16.125c0-2.591,0-4.607-.1-6.047s-.1-2.4-.1-2.975a9.993,9.993,0,0,0-.1-1.056l-4.607-1.152.192-2.591h15.165c4.607,0,8.254,1.056,10.942,3.263s4.031,5.279,4.031,9.406a12.089,12.089,0,0,1-2.208,7.2,14.016,14.016,0,0,1-5.663,4.607,17.782,17.782,0,0,1-7.487,1.632c-1.152,0-2.3-.1-3.263-.192s-1.92-.288-2.783-.384v-3.647c1.248.288,2.3.48,3.263.672a12.233,12.233,0,0,0,2.591.192,11.212,11.212,0,0,0,7.295-2.208q2.591-2.16,2.592-6.911c0-3.647-.96-6.239-2.879-7.966a10.284,10.284,0,0,0-7.1-2.591H478.57v2.208c0,1.056-.1,2.4-.1,3.935v4.7l.1,16.125v6.143a18.688,18.688,0,0,0,.192,2.975,6.548,6.548,0,0,1,.1,1.152l6.239,1.056-.192,2.687H468.78Z" transform="translate(-3.127 -2.946)" fill="#222"/>
    <path id="Pfad_50" data-name="Pfad 50" d="M503.868,329.042l-.192-2.5,4.607-1.056a5.1,5.1,0,0,0,.1-1.344c0-.672.1-1.536.1-2.591V311.477c0-1.728-.1-3.455-.192-5.183a23.577,23.577,0,0,0-.384-3.743l-4.8-1.056v-2.208l9.118-2.592.864.96-.384,6.335.192.1c1.536-2.975,3.071-4.9,4.607-5.951a7.647,7.647,0,0,1,4.319-1.536,4.572,4.572,0,0,1,2.784.864,2.655,2.655,0,0,1,1.056,2.3,2.791,2.791,0,0,1-1.152,2.4,4.664,4.664,0,0,1-2.879.864,5.2,5.2,0,0,1-2.4-.576,6.26,6.26,0,0,1-2.016-1.536l1.056.48a12.163,12.163,0,0,0-2.783,2.687,22.314,22.314,0,0,0-2.5,4.319l.1,7.295c.1,1.056.1,2.3.192,3.647s.1,2.5.192,3.647.1,2.016.192,2.687l6.527.864-.192,2.591H503.868Z" transform="translate(-4.526 -3.432)" fill="#222"/>
    <path id="Pfad_51" data-name="Pfad 51" d="M543.241,329.709a15.891,15.891,0,0,1-8.35-2.112,13.991,13.991,0,0,1-5.471-5.855,17.908,17.908,0,0,1-1.92-8.638,16.952,16.952,0,0,1,2.112-8.638,15.586,15.586,0,0,1,5.855-5.855,15.819,15.819,0,0,1,8.062-2.112,15.355,15.355,0,0,1,7.966,2.016,13.36,13.36,0,0,1,5.279,5.759,19.081,19.081,0,0,1,1.92,8.638,17.708,17.708,0,0,1-2.016,8.446,15.871,15.871,0,0,1-5.471,6.047A15.143,15.143,0,0,1,543.241,329.709Zm.672-3.167a7.635,7.635,0,0,0,4.8-1.632,10.905,10.905,0,0,0,3.167-4.415,17.221,17.221,0,0,0,1.152-6.527c0-4.319-.96-7.774-2.879-10.462a8.776,8.776,0,0,0-7.391-4.031,8.382,8.382,0,0,0-7.007,3.455,15.011,15.011,0,0,0-2.687,9.214,19.677,19.677,0,0,0,1.344,7.487,12.013,12.013,0,0,0,3.839,4.991A9.805,9.805,0,0,0,543.913,326.542Z" transform="translate(-5.506 -3.428)" fill="#222"/>
    <path id="Pfad_52" data-name="Pfad 52" d="M560.048,345.7l-1.248-2.208a16.3,16.3,0,0,0,5.759-5.279,15.807,15.807,0,0,0,1.92-8.35l.1-19.964c0-2.208-.1-4.031-.192-5.471a8.66,8.66,0,0,0-.384-2.687l-4.991-.96v-2.208l9.79-2.591.864.96q-.144,1.872-.288,4.031c-.1,1.44-.1,3.263-.1,5.471l.1,22.46a22.572,22.572,0,0,1-.576,5.183,12.136,12.136,0,0,1-1.92,4.415,16.43,16.43,0,0,1-3.455,3.935A25.721,25.721,0,0,1,560.048,345.7Zm8.83-58.932A4.064,4.064,0,0,1,566,285.615a3.65,3.65,0,0,1-1.248-2.879A3.591,3.591,0,0,1,566,279.952a4.175,4.175,0,0,1,5.759,0,3.844,3.844,0,0,1,1.152,2.783,3.906,3.906,0,0,1-1.152,2.879A4.064,4.064,0,0,1,568.878,286.766Z" transform="translate(-6.764 -2.717)" fill="#222"/>
    <path id="Pfad_53" data-name="Pfad 53" d="M592.469,329.709a15.61,15.61,0,0,1-7.583-1.92,13.642,13.642,0,0,1-5.471-5.471,17.419,17.419,0,0,1-2.016-8.638,18.18,18.18,0,0,1,2.111-9.214,15.19,15.19,0,0,1,5.567-5.951,12.657,12.657,0,0,1,7.391-2.016,11.613,11.613,0,0,1,8.83,3.743c2.112,2.5,3.263,6.047,3.263,10.846v1.152H581.143v-3.071h19.2l-.768.768v-1.344q0-4.463-2.016-6.911a6.935,6.935,0,0,0-5.663-2.4,7.835,7.835,0,0,0-4.223,1.344,9.789,9.789,0,0,0-3.359,3.935,14.764,14.764,0,0,0-1.344,6.623v.768c0,4.223,1.056,7.582,3.071,9.886a10.283,10.283,0,0,0,7.87,3.551,10.717,10.717,0,0,0,4.8-1.056,12.933,12.933,0,0,0,4.031-3.455l1.824,1.536a12.963,12.963,0,0,1-12.094,7.295Z" transform="translate(-7.512 -3.428)" fill="#222"/>
    <path id="Pfad_54" data-name="Pfad 54" d="M623.969,329.705a16.169,16.169,0,0,1-7.582-1.92,13.642,13.642,0,0,1-5.471-5.471,17.544,17.544,0,0,1-2.016-8.734,17.987,17.987,0,0,1,2.208-8.83,17.131,17.131,0,0,1,5.855-6.143,15.316,15.316,0,0,1,8.35-2.208,17.436,17.436,0,0,1,5.471.768,8.259,8.259,0,0,1,3.263,2.016,3.783,3.783,0,0,1,1.056,2.591,2.766,2.766,0,0,1-.672,1.92,2.46,2.46,0,0,1-2.016.768,4.058,4.058,0,0,1-1.92-.48,9.188,9.188,0,0,1-2.016-1.728l-3.359-3.647,2.3.768a9.673,9.673,0,0,0-6.143.576,10.315,10.315,0,0,0-4.9,4.415,15.247,15.247,0,0,0-1.92,8.254c0,4.031,1.056,7.2,3.167,9.406a10.3,10.3,0,0,0,7.774,3.263,12.161,12.161,0,0,0,5.183-1.056,12.481,12.481,0,0,0,3.935-3.359l1.92,1.536a14.311,14.311,0,0,1-5.183,5.471A15.5,15.5,0,0,1,623.969,329.705Z" transform="translate(-8.778 -3.424)" fill="#222"/>
    <path id="Pfad_55" data-name="Pfad 55" d="M661.707,324.669a10.476,10.476,0,0,1-3.839,3.551,10.7,10.7,0,0,1-4.8,1.152,10.005,10.005,0,0,1-7.2-2.687c-1.92-1.824-2.784-4.511-2.784-8.062l.192-18.332H638v-1.344l8.83-8.446h1.152l-.192,8.062-.1,18.716a9.557,9.557,0,0,0,1.728,6.143,6.168,6.168,0,0,0,4.991,2.016,8.183,8.183,0,0,0,3.359-.768,9.127,9.127,0,0,0,2.687-1.92ZM645.678,300.29v-3.455H659.4v3.455Z" transform="translate(-9.948 -3.187)" fill="#222"/>
  </g>
</svg>
