<svg xmlns="http://www.w3.org/2000/svg" width="320" height="131.686" viewBox="0 0 320 131.686">
  <g id="Archwumjakoprojekt" transform="translate(-467.9 -246.8)">
    <path id="Pfad_56" data-name="Pfad 56" d="M468.592,299.1l-.192-2.591,3.647-1.056L487.5,256l3.839-2.3,16.029,41.752,3.743,1.056-.192,2.591H497.1l-.192-2.591,4.607-1.056L497,283.934l-.864-2.208-8.446-21.116,1.728-1.44-8.35,22.556-.864,2.208-4.127,11.518,4.607,1.056-.192,2.591Zm9.982-14.205v-3.647c.96.1,2.3.1,4.127.192,1.728.1,3.935.1,6.527.1,2.5,0,4.607,0,6.335-.1s3.071-.1,4.031-.192v3.647c-1.92-.1-3.839-.1-5.567-.1h-9.5C482.8,284.8,480.782,284.8,478.574,284.894Z" transform="translate(-0.02 -0.277)" fill="#222"/>
    <path id="Pfad_57" data-name="Pfad 57" d="M515.068,299.642l-.192-2.5,4.607-1.056a5.1,5.1,0,0,0,.1-1.344c0-.672.1-1.536.1-2.591V282.077c0-1.728-.1-3.455-.192-5.183a23.565,23.565,0,0,0-.384-3.743l-4.8-1.056v-2.208l9.118-2.591.864.96-.384,6.335.192.1c1.536-2.975,3.071-4.9,4.607-5.951a7.647,7.647,0,0,1,4.319-1.536,4.572,4.572,0,0,1,2.783.864,2.655,2.655,0,0,1,1.056,2.3,2.791,2.791,0,0,1-1.152,2.4,4.664,4.664,0,0,1-2.879.864,5.2,5.2,0,0,1-2.4-.576,6.261,6.261,0,0,1-2.016-1.536l1.056.48a12.161,12.161,0,0,0-2.784,2.687,22.314,22.314,0,0,0-2.5,4.319l.1,7.295c.1,1.056.1,2.3.192,3.647s.1,2.5.192,3.647.1,2.016.192,2.687l6.527.864-.1,2.5Z" transform="translate(-1.865 -0.82)" fill="#222"/>
    <path id="Pfad_58" data-name="Pfad 58" d="M553.469,300.205a16.169,16.169,0,0,1-7.583-1.92,13.642,13.642,0,0,1-5.471-5.471,17.544,17.544,0,0,1-2.016-8.734,17.988,17.988,0,0,1,2.208-8.83,17.131,17.131,0,0,1,5.855-6.143,15.316,15.316,0,0,1,8.35-2.208,17.437,17.437,0,0,1,5.471.768,8.259,8.259,0,0,1,3.263,2.016,3.783,3.783,0,0,1,1.056,2.591,2.767,2.767,0,0,1-.672,1.92,2.461,2.461,0,0,1-2.016.768,4.058,4.058,0,0,1-1.92-.48,9.184,9.184,0,0,1-2.016-1.728l-3.359-3.647,2.3.768a9.673,9.673,0,0,0-6.143.576,10.315,10.315,0,0,0-4.9,4.415,15.247,15.247,0,0,0-1.92,8.254c0,4.031,1.056,7.2,3.167,9.406a10.3,10.3,0,0,0,7.774,3.263,12.161,12.161,0,0,0,5.183-1.056,12.479,12.479,0,0,0,3.935-3.359l1.92,1.536a14.311,14.311,0,0,1-5.183,5.471A13.963,13.963,0,0,1,553.469,300.205Z" transform="translate(-2.834 -0.808)" fill="#222"/>
    <path id="Pfad_59" data-name="Pfad 59" d="M567.748,298.822l-.192-2.5,4.607-1.056a15.475,15.475,0,0,0,.192-2.5c0-1.056.1-2.591.1-4.415V266c0-2.016-.1-4.031-.1-5.951s-.1-3.551-.1-4.9v-2.591l-5.567-.768-.192-2.112,9.6-2.879,1.152.96c-.1,1.536-.1,3.071-.1,4.7,0,1.536-.1,3.263-.1,5.087s-.1,3.839-.1,6.047v7.678l.192.1a18.138,18.138,0,0,1,5.183-4.031,12.566,12.566,0,0,1,5.375-1.152,10.239,10.239,0,0,1,4.991,1.344,9.925,9.925,0,0,1,3.935,4.223,15.1,15.1,0,0,1,1.536,7.391V287.4c0,1.824.1,3.455.192,4.9s.192,2.4.288,3.071l4.607,1.056.192,2.4H589.439l-.192-2.5,4.319-1.056a6.358,6.358,0,0,0,.1-1.44c0-.576.1-1.248.1-2.208v-12.19a11.556,11.556,0,0,0-1.152-5.471,7.19,7.19,0,0,0-2.879-2.975,7.606,7.606,0,0,0-3.839-.96,9.883,9.883,0,0,0-4.9,1.344,12.865,12.865,0,0,0-3.935,3.647V286.44c0,2.4,0,4.415.1,5.951s.1,2.5.192,2.879l4.607,1.056-.192,2.5Z" transform="translate(-3.963)" fill="#222"/>
    <path id="Pfad_60" data-name="Pfad 60" d="M607.58,298.922l-.192-2.591,4.991-.96a2.409,2.409,0,0,0,.1-.96c0-.48.1-1.248.1-2.4v-4.8l.1-4.7c0-2.3-.1-4.415-.192-6.239a25.323,25.323,0,0,0-.384-3.935L607.1,271.28v-2.208l9.79-2.592.864.864c-.1,1.536-.192,3.071-.288,4.511s-.1,3.167-.1,5.183v9.406c0,2.5,0,4.415.1,5.951s.1,2.5.192,2.879l4.991.96-.192,2.592H607.58Zm7.487-41.656a4.064,4.064,0,0,1-2.879-1.152,3.65,3.65,0,0,1-1.248-2.879,3.591,3.591,0,0,1,1.248-2.783,4.175,4.175,0,0,1,5.759,0,3.844,3.844,0,0,1,1.152,2.783,3.907,3.907,0,0,1-1.152,2.879A4.233,4.233,0,0,1,615.066,257.266Z" transform="translate(-5.595 -0.1)" fill="#222"/>
    <path id="Pfad_61" data-name="Pfad 61" d="M637.357,299.946l-11.806-28.7L622,270.1l.192-2.5h12.573l.192,2.5-3.839,1.152,9.6,24-2.208.1,10.078-24.955,1.92,4.511-11.134,25.147h-2.016Zm21.308,0-11.134-28.7-3.839-1.152.192-2.5h12.477l.192,2.5-3.935,1.152,9.022,24-1.92.1,9.118-24.091L664.9,270.1l.192-2.5h11.422l.192,2.5-3.551,1.152-12.478,28.7Z" transform="translate(-6.193 -0.836)" fill="#222"/>
    <path id="Pfad_62" data-name="Pfad 62" d="M711.682,294.834l4.7,1.152v2.3l-8.926,2.016-.864-.864.1-4.607-.192-.1a14.366,14.366,0,0,1-4.415,4.127,10.127,10.127,0,0,1-4.8,1.152,11.8,11.8,0,0,1-8.254-2.975c-2.3-2.016-3.455-4.991-3.455-9.118V281.4c0-1.536,0-2.975-.1-4.415s-.1-2.783-.192-4.127L680.2,271.8v-2.208L689.414,267l1.056,1.152c-.1,1.536-.1,3.167-.192,4.8s-.1,3.359-.1,5.279l-.1,8.734c0,3.263.768,5.663,2.3,7.007a8.511,8.511,0,0,0,5.855,2.016,9.769,9.769,0,0,0,4.415-1.152A9.416,9.416,0,0,0,706.595,291V278.614c0-1.152-.1-2.208-.1-3.167-.1-.96-.1-1.824-.192-2.591l-5.471-1.056v-2.208L710.53,267l.864.96c-.1,1.536-.1,2.783-.1,3.839v11.71c0,3.167.1,5.663.192,7.391A19.94,19.94,0,0,0,711.682,294.834Z" transform="translate(-8.533 -0.812)" fill="#222"/>
    <path id="Pfad_63" data-name="Pfad 63" d="M720.576,299.634l-.192-2.5,4.607-1.056a7.263,7.263,0,0,0,.1-1.44c0-.48.1-1.248.1-2.3v-4.415l.1-5.951a20.739,20.739,0,0,0,0-3.455c-.1-1.152-.1-2.3-.192-3.263q-.144-1.584-.288-2.3l-4.8-1.056v-2.208l9.118-2.591,1.056,1.152-.384,4.031.192.1a14.355,14.355,0,0,1,4.8-4.127,10.444,10.444,0,0,1,10.078.1,11.208,11.208,0,0,1,4.127,4.319,15.451,15.451,0,0,1,1.632,7.486v7.966c0,1.824.1,3.455.192,4.9s.192,2.4.288,3.071l4.607,1.056-.192,2.5H741.787l-.192-2.5,4.127-1.056a6.358,6.358,0,0,0,.1-1.44c0-.576.1-1.248.1-2.208V280.149a12.153,12.153,0,0,0-1.056-5.375,6.658,6.658,0,0,0-2.879-2.975,7.157,7.157,0,0,0-3.647-.96,9.646,9.646,0,0,0-4.607,1.152,11.125,11.125,0,0,0-3.935,3.743v11.422c0,2.5,0,4.415.1,5.759.1,1.44.1,2.4.192,3.071l4.511,1.056-.192,2.5H720.576Zm41.752,0-.192-2.5,4.319-1.056a5.9,5.9,0,0,0,.1-1.344c0-.48.1-1.248.1-2.208.1-.96.1-2.208.1-3.647l.1-8.638a10.047,10.047,0,0,0-1.248-5.471,7.435,7.435,0,0,0-6.431-3.743,10.324,10.324,0,0,0-5.087,1.344,13.372,13.372,0,0,0-4.127,4.223l-1.152-2.591a16.78,16.78,0,0,1,5.567-5.279A12.787,12.787,0,0,1,760.5,267.1a10.588,10.588,0,0,1,5.471,1.44,10.714,10.714,0,0,1,4.031,4.223,14.589,14.589,0,0,1,1.536,6.815v8.734c0,1.824,0,3.455.1,4.9s.192,2.4.288,3.071l4.607,1.056-.192,2.5H762.328Z" transform="translate(-10.132 -0.812)" fill="#222"/>
    <path id="Pfad_64" data-name="Pfad 64" d="M469.148,381.2l-1.248-2.208a16.3,16.3,0,0,0,5.759-5.279,15.807,15.807,0,0,0,1.92-8.35l.1-19.964c0-2.208-.1-4.031-.192-5.471a8.661,8.661,0,0,0-.384-2.687l-4.991-.96v-2.208l9.79-2.591.864.96q-.144,1.872-.288,4.031c-.1,1.44-.1,3.263-.1,5.471l.1,22.46a22.572,22.572,0,0,1-.576,5.183,12.137,12.137,0,0,1-1.92,4.415,16.428,16.428,0,0,1-3.455,3.935A25.716,25.716,0,0,1,469.148,381.2Zm8.83-58.932a4.064,4.064,0,0,1-2.879-1.152,3.65,3.65,0,0,1-1.248-2.879,3.591,3.591,0,0,1,1.248-2.783,4.175,4.175,0,0,1,5.759,0,3.844,3.844,0,0,1,1.152,2.783,3.907,3.907,0,0,1-1.152,2.879A4.232,4.232,0,0,1,477.978,322.266Z" transform="translate(0 -2.713)" fill="#222"/>
    <path id="Pfad_65" data-name="Pfad 65" d="M497.274,365.205a11.429,11.429,0,0,1-5.183-1.152,10.143,10.143,0,0,1-3.647-2.879,6.439,6.439,0,0,1-1.344-3.839,5.884,5.884,0,0,1,1.632-4.127,14.226,14.226,0,0,1,5.471-2.879l11.326-3.935v-4.127a6.107,6.107,0,0,0-1.152-3.647,7.858,7.858,0,0,0-3.071-2.5,10.98,10.98,0,0,0-4.415-.864,3.572,3.572,0,0,0-2.783.864,5.929,5.929,0,0,0-.864,3.359l-.192,2.687a6,6,0,0,1-4.127-.1,2.526,2.526,0,0,1-1.728-2.4,4.043,4.043,0,0,1,1.056-2.4,11.093,11.093,0,0,1,2.687-2.4,18.668,18.668,0,0,1,3.647-1.92,20.038,20.038,0,0,1,4.127-1.056,12.35,12.35,0,0,1,8.446,2.879,9.725,9.725,0,0,1,3.263,7.486l-.192,13.245c0,.768,0,1.728.1,2.687a6.708,6.708,0,0,0,.384,2.016l4.7.864v2.016l-3.359,1.152a9.041,9.041,0,0,1-1.728.576,7.527,7.527,0,0,1-1.344.192c-1.44,0-2.3-.864-2.687-2.5l-.672-2.783,1.056-.192a28.429,28.429,0,0,1-4.8,4.127A8.016,8.016,0,0,1,497.274,365.205Zm1.44-3.743a8.253,8.253,0,0,0,3.743-.864,9.48,9.48,0,0,0,3.167-2.783v-8.062l-9.406,2.687a4.847,4.847,0,0,0-2.591,1.44,3.8,3.8,0,0,0-.768,2.591,4.464,4.464,0,0,0,1.824,3.455A5.9,5.9,0,0,0,498.714,361.462Z" transform="translate(-0.772 -3.42)" fill="#222"/>
    <path id="Pfad_66" data-name="Pfad 66" d="M519.432,363.822l-.192-2.5,4.319-1.056c.1-.48.1-1.248.192-2.3s.1-2.4.1-4.127V330.708c0-2.112-.1-4.031-.1-5.855s-.1-3.455-.1-4.7-.1-2.112-.1-2.4l-5.567-.96-.192-2.112,9.694-2.879,1.248.96c-.1,1.728-.192,3.455-.192,5.183s-.1,3.455-.1,5.183v11.422l-.1,18.716c0,1.344,0,2.4.1,3.359s.1,1.728.192,2.3a7.465,7.465,0,0,1,.1,1.248l4.607,1.056-.192,2.5H519.432Zm31.482,0h-7.391c-.864-1.248-1.632-2.112-2.016-2.687-.48-.576-.96-1.056-1.44-1.536l-10.654-11.518h-2.208l.1-1.536,3.071-.864,10.078-10.366-4.991-.864.192-2.591h14.589l.192,2.591-4.991.864-13.725,12.573,1.248-2.591,10.174,10.846c.48.576,1.152,1.344,2.016,2.208s1.632,1.536,2.3,2.208l3.551.768Z" transform="translate(-2.006 -2.612)" fill="#222"/>
    <path id="Pfad_67" data-name="Pfad 67" d="M567.941,365.209a15.891,15.891,0,0,1-8.35-2.112,13.992,13.992,0,0,1-5.471-5.855,17.908,17.908,0,0,1-1.92-8.638,16.951,16.951,0,0,1,2.112-8.638,15.585,15.585,0,0,1,5.855-5.855A15.819,15.819,0,0,1,568.229,332a15.355,15.355,0,0,1,7.966,2.016,13.359,13.359,0,0,1,5.279,5.759,19.081,19.081,0,0,1,1.92,8.638,17.708,17.708,0,0,1-2.016,8.446,15.872,15.872,0,0,1-5.471,6.047A15.143,15.143,0,0,1,567.941,365.209Zm.672-3.167a7.635,7.635,0,0,0,4.8-1.632A10.9,10.9,0,0,0,576.579,356a17.22,17.22,0,0,0,1.152-6.527c0-4.319-.96-7.774-2.879-10.462a8.776,8.776,0,0,0-7.391-4.031,8.382,8.382,0,0,0-7.007,3.455,15.011,15.011,0,0,0-2.687,9.214,19.677,19.677,0,0,0,1.344,7.487,12.015,12.015,0,0,0,3.839,4.991A9.806,9.806,0,0,0,568.613,362.042Z" transform="translate(-3.388 -3.424)" fill="#222"/>
    <path id="Pfad_68" data-name="Pfad 68" d="M601.376,381.042l-.192-2.5,4.607-1.056v-1.152c0-.576.1-1.344.1-2.208,0-.96.1-2.112.1-3.455v-4.7l.192-19.484c0-1.536-.1-3.167-.192-4.8a26.57,26.57,0,0,0-.384-3.743l-4.8-1.056v-2.208l9.118-2.591,1.056,1.152-.384,3.935.192.1a16.243,16.243,0,0,1,4.7-4.031,11.44,11.44,0,0,1,5.375-1.344,12.938,12.938,0,0,1,7.487,2.112,14.273,14.273,0,0,1,4.991,5.663,18.548,18.548,0,0,1,1.824,8.158,17.988,17.988,0,0,1-2.208,8.83,17.65,17.65,0,0,1-6.047,6.143,16.8,16.8,0,0,1-8.446,2.208,19.736,19.736,0,0,1-4.031-.384,21.313,21.313,0,0,1-3.743-1.056v5.951c0,2.016,0,3.647.1,4.9s.1,2.3.192,3.071l6.143.864-.192,2.687Zm17.565-19.2a10.235,10.235,0,0,0,5.663-1.536,9.971,9.971,0,0,0,3.743-4.415,15.167,15.167,0,0,0,1.44-6.815,15.661,15.661,0,0,0-1.152-6.431,11.782,11.782,0,0,0-3.647-4.7,8.858,8.858,0,0,0-5.375-1.824,9.748,9.748,0,0,0-4.7,1.152,11.7,11.7,0,0,0-3.935,3.647v18.428a13.594,13.594,0,0,0,3.743,1.824A12.948,12.948,0,0,0,618.94,361.846Z" transform="translate(-5.341 -3.42)" fill="#222"/>
    <path id="Pfad_69" data-name="Pfad 69" d="M638.768,364.642l-.192-2.5,4.607-1.056a5.1,5.1,0,0,0,.1-1.344c0-.672.1-1.536.1-2.591V347.077c0-1.728-.1-3.455-.192-5.183a23.579,23.579,0,0,0-.384-3.743L638,337.1v-2.208l9.118-2.591.864.96-.384,6.335.192.1c1.536-2.975,3.071-4.9,4.607-5.951a7.647,7.647,0,0,1,4.319-1.536,4.572,4.572,0,0,1,2.783.864,2.655,2.655,0,0,1,1.056,2.3,2.791,2.791,0,0,1-1.152,2.4,4.664,4.664,0,0,1-2.879.864,5.2,5.2,0,0,1-2.4-.576,6.261,6.261,0,0,1-2.016-1.536l1.056.48a12.161,12.161,0,0,0-2.783,2.687,22.311,22.311,0,0,0-2.5,4.319l.1,7.295c.1,1.056.1,2.3.192,3.647s.1,2.5.192,3.647.1,2.016.192,2.687l6.527.864-.192,2.591H638.768Z" transform="translate(-6.836 -3.432)" fill="#222"/>
    <path id="Pfad_70" data-name="Pfad 70" d="M678.141,365.209a15.891,15.891,0,0,1-8.35-2.112,13.992,13.992,0,0,1-5.471-5.855,17.908,17.908,0,0,1-1.92-8.638,16.951,16.951,0,0,1,2.112-8.638,15.585,15.585,0,0,1,5.855-5.855A15.819,15.819,0,0,1,678.429,332a15.355,15.355,0,0,1,7.966,2.016,13.359,13.359,0,0,1,5.279,5.759,19.081,19.081,0,0,1,1.92,8.638,17.708,17.708,0,0,1-2.016,8.446,15.872,15.872,0,0,1-5.471,6.047A15.143,15.143,0,0,1,678.141,365.209Zm.672-3.167a7.635,7.635,0,0,0,4.8-1.632A10.9,10.9,0,0,0,686.779,356a17.22,17.22,0,0,0,1.152-6.527c0-4.319-.96-7.774-2.879-10.462a8.776,8.776,0,0,0-7.391-4.031,8.382,8.382,0,0,0-7.007,3.455,15.011,15.011,0,0,0-2.687,9.214,19.677,19.677,0,0,0,1.344,7.487,12.015,12.015,0,0,0,3.839,4.991A9.806,9.806,0,0,0,678.813,362.042Z" transform="translate(-7.817 -3.424)" fill="#222"/>
    <path id="Pfad_71" data-name="Pfad 71" d="M694.948,381.2l-1.248-2.208a16.3,16.3,0,0,0,5.759-5.279,15.807,15.807,0,0,0,1.92-8.35l.1-19.964c0-2.208-.1-4.031-.192-5.471a8.66,8.66,0,0,0-.384-2.687l-4.991-.96v-2.208l9.79-2.591.864.96q-.144,1.872-.288,4.031c-.1,1.44-.1,3.263-.1,5.471l.1,22.46a22.576,22.576,0,0,1-.576,5.183,12.137,12.137,0,0,1-1.92,4.415,16.43,16.43,0,0,1-3.455,3.935A25.716,25.716,0,0,1,694.948,381.2Zm8.83-58.932a4.064,4.064,0,0,1-2.879-1.152,3.65,3.65,0,0,1-1.248-2.879,3.592,3.592,0,0,1,1.248-2.783,4.175,4.175,0,0,1,5.759,0,3.844,3.844,0,0,1,1.152,2.783,3.907,3.907,0,0,1-1.152,2.879A4.233,4.233,0,0,1,703.778,322.266Z" transform="translate(-9.075 -2.713)" fill="#222"/>
    <path id="Pfad_72" data-name="Pfad 72" d="M727.269,365.209a15.609,15.609,0,0,1-7.582-1.92,13.641,13.641,0,0,1-5.471-5.471,17.418,17.418,0,0,1-2.016-8.638,18.179,18.179,0,0,1,2.112-9.214,15.189,15.189,0,0,1,5.567-5.951A12.656,12.656,0,0,1,727.269,332a11.613,11.613,0,0,1,8.83,3.743c2.112,2.5,3.263,6.047,3.263,10.846v1.152H715.943v-3.071h19.2l-.768.768v-1.344q0-4.463-2.016-6.911a6.936,6.936,0,0,0-5.663-2.4,7.835,7.835,0,0,0-4.223,1.344,9.788,9.788,0,0,0-3.359,3.935,14.762,14.762,0,0,0-1.344,6.623v.768c0,4.223,1.056,7.582,3.071,9.886a10.283,10.283,0,0,0,7.87,3.551,10.717,10.717,0,0,0,4.8-1.056,12.933,12.933,0,0,0,4.031-3.455l1.824,1.536a15.363,15.363,0,0,1-5.183,5.567A13.679,13.679,0,0,1,727.269,365.209Z" transform="translate(-9.819 -3.424)" fill="#222"/>
    <path id="Pfad_73" data-name="Pfad 73" d="M742.532,363.83l-.192-2.5,4.319-1.056c.1-.48.1-1.248.192-2.3s.1-2.4.1-4.127V330.716c0-2.112-.1-4.031-.1-5.855s-.1-3.455-.1-4.7-.1-2.112-.1-2.4l-5.567-.768-.192-2.112L750.594,312l1.248.96c-.1,1.728-.192,3.455-.192,5.183s-.1,3.455-.1,5.183v11.422l-.1,18.716c0,1.344,0,2.4.1,3.359s.1,1.728.192,2.3a7.465,7.465,0,0,1,.1,1.248l4.607,1.056-.192,2.5H742.532Zm31.578,0h-7.391c-.864-1.248-1.632-2.112-2.016-2.687-.48-.576-.96-1.056-1.44-1.536L752.61,348.089H750.4l.1-1.536,3.071-.864,10.078-10.366-4.991-.864.192-2.591h14.589l.192,2.591-4.991.864L754.913,347.9l1.248-2.591,10.174,10.846c.48.576,1.152,1.344,2.016,2.208s1.632,1.536,2.3,2.208l3.551.768Z" transform="translate(-10.972 -2.62)" fill="#222"/>
    <path id="Pfad_74" data-name="Pfad 74" d="M800.307,360.169a10.477,10.477,0,0,1-3.839,3.551,10.7,10.7,0,0,1-4.8,1.152,10.005,10.005,0,0,1-7.2-2.687c-1.92-1.824-2.784-4.511-2.784-8.062l.192-18.332H776.6v-1.344L785.43,326h1.152l-.192,8.062-.1,18.716a9.557,9.557,0,0,0,1.728,6.143,6.169,6.169,0,0,0,4.991,2.016,8.182,8.182,0,0,0,3.359-.768,9.125,9.125,0,0,0,2.688-1.92Zm-16.029-24.283v-3.455H798v3.455Z" transform="translate(-12.407 -3.183)" fill="#222"/>
  </g>
</svg>
