<?xml version="1.0" encoding="utf-8"?>
<!-- Generator: Adobe Illustrator 26.5.0, SVG Export Plug-In . SVG Version: 6.00 Build 0)  -->
<svg version="1.1" id="Layer_1" xmlns="http://www.w3.org/2000/svg" xmlns:xlink="http://www.w3.org/1999/xlink" x="0px" y="0px"
	 viewBox="0 0 1224.9 81.4" style="enable-background:new 0 0 1224.9 81.4;" xml:space="preserve">
<style type="text/css">
	.st0{fill:#42125A;}
</style>
<g>
	<path class="st0" d="M120.4,74.8l8.6,1.9l-0.3,4.6h-25.9l-0.3-4.6l8-1.9c0.1-0.7,0.2-1.6,0.2-2.6c0-1,0.1-2.4,0.1-4.1
		c0-1.7,0.1-3.9,0.1-6.7V45.6c0-4.2-0.7-7.5-2.1-10c-1.4-2.5-3.2-4.4-5.4-5.5c-2.2-1.2-4.6-1.7-7.1-1.7c-3.2,0-6.2,0.8-9,2.4
		c-2.8,1.6-5.2,3.9-7.2,6.7v21.1c0,4.3,0.1,8,0.2,10.9c0.1,2.9,0.3,4.7,0.3,5.5l8.6,1.9l-0.3,4.6H62.8l-0.3-4.6l8.6-1.9
		c0.2-1.1,0.3-2.7,0.3-4.6c0-2,0.1-4.7,0.1-8.2c0-3.5,0.1-8.1,0.1-13.7V31.1c0-2.8,0-5.6-0.1-8.5c0-2.9-0.1-5.7-0.1-8.5
		c0-2.7-0.1-5.2-0.1-7.4c-0.6-0.2-1.5-0.3-2.7-0.5C67.5,6,66.2,6,64.7,6H49.3c-0.8,0-2.1,0-3.8,0c-1.7,0-3.2,0.1-4.5,0.3
		c0,0.6,0,2.2-0.1,4.8c0,2.5-0.1,5.6-0.1,9.1c0,3.5-0.1,7-0.1,10.5V51c0,6,0,11.2,0.1,15.7c0.1,4.4,0.2,7.1,0.3,8l11.5,1.7l-0.1,5
		H19.1l-0.3-5l11.6-1.7c0-0.9,0-3.6,0.1-8c0.1-4.4,0.1-9.7,0.1-15.7V30.6c0-1.9,0-4.2,0-6.7c0-2.5,0-5,0-7.5c0-2.4,0-4.6-0.1-6.4
		c0-1.8-0.1-3.1-0.1-3.7C29.2,6.2,27.7,6.1,26,6C24.3,6,22.9,6,21.9,6h-5c-0.7,0-1.6,0-2.6,0.1c-1,0-1.8,0.2-2.4,0.3l-6,15.8
		l-5.4-0.8L3.4-0.5C4.8-0.4,6-0.4,7-0.3c1,0.1,1.9,0.2,2.8,0.2C10.7,0,11.7,0,12.6,0c0.9,0,1.9,0,3,0H68c1.4,0,2.7,0,3.9-0.1
		c1.2,0,2.5-0.1,3.9-0.3c1.3-0.1,2.8-0.3,4.5-0.3c0,2.9,0,5.8-0.1,8.9c0,3.1-0.1,6.4-0.1,10s0,7.7-0.1,12.3l0.4,0.1
		c3.3-3.5,6.5-6,9.6-7.5c3-1.5,6.3-2.2,9.8-2.2c3.3,0,6.5,0.8,9.4,2.5c3,1.7,5.4,4.2,7.3,7.8c1.9,3.5,2.9,8,2.9,13.6v15.2
		c0,3.4,0.1,6.4,0.3,9.1C120,71.9,120.2,73.7,120.4,74.8z"/>
	<path class="st0" d="M161.1,82.5c-5.1,0-9.7-1.2-14-3.5c-4.3-2.3-7.6-5.7-10.1-10.1c-2.5-4.4-3.7-9.7-3.7-15.9
		c0-6.7,1.3-12.4,3.9-17.1c2.6-4.8,6-8.4,10.3-11c4.2-2.6,8.8-3.8,13.6-3.7c6.9,0.1,12.4,2.4,16.4,6.9c4,4.5,6,11.2,6,20.1v2.2H140
		v-5.7h35.5l-1.4,1.4v-2.5c0-5.5-1.2-9.8-3.7-12.8c-2.5-3-6-4.5-10.5-4.5c-2.7,0-5.3,0.8-7.8,2.4c-2.5,1.6-4.6,4-6.2,7.3
		c-1.6,3.2-2.4,7.3-2.4,12.2v1.4c0,7.9,1.9,14,5.8,18.3c3.8,4.3,8.7,6.5,14.6,6.5c3.4,0,6.4-0.6,8.9-1.9c2.5-1.3,5-3.4,7.4-6.4
		l3.3,2.9c-2.6,4.6-5.8,8-9.6,10.3C170.1,81.4,165.8,82.5,161.1,82.5z"/>
	<path class="st0" d="M213,81.4l-0.3-4.7l6.8-1.9l28.5-72.9l7.1-4.3l29.7,77.2l6.9,1.9l-0.4,4.7h-25.5l-0.3-4.7l8.5-1.9l-8.3-21.3
		l-1.5-4.2l-15.7-38.9l3.2-2.6l-15.4,41.7l-1.5,4.2l-7.6,21.2l8.5,1.9l-0.3,4.7H213z M231.6,55.2v-6.8c1.8,0.1,4.3,0.2,7.6,0.3
		c3.3,0.1,7.3,0.1,12,0.1c4.5,0,8.4,0,11.7-0.1c3.3-0.1,5.8-0.2,7.4-0.3v6.8c-3.6-0.1-7-0.2-10.3-0.2c-3.3,0-6.2-0.1-8.8-0.1
		c-2.6,0-5.5,0-8.7,0.1C239.3,55,235.6,55.1,231.6,55.2z"/>
	<path class="st0" d="M297.7,81.4l-0.3-4.6l8.6-1.9c0.1-0.6,0.2-1.4,0.2-2.6c0-1.2,0.1-2.8,0.1-4.8c0-2.1,0.1-4.6,0.1-7.7V48.8
		c0-3.2-0.1-6.4-0.3-9.6c-0.2-3.2-0.4-5.5-0.7-7l-8.9-1.9v-4.2l16.9-4.7l1.7,1.8l-0.7,11.8l0.4,0.1c2.9-5.4,5.7-9.1,8.6-11
		c2.9-1.9,5.5-2.8,7.9-2.8c2,0,3.7,0.5,5.1,1.5c1.3,1,2,2.4,2,4.3c0,1.9-0.7,3.4-2.1,4.4c-1.4,1-3.2,1.5-5.4,1.5
		c-1.6,0-3.1-0.4-4.5-1.1c-1.4-0.7-2.7-1.7-3.8-2.8l1.9,1c-1.8,1.2-3.5,2.9-5.1,5c-1.7,2.1-3.2,4.8-4.6,7.9l0.1,13.4
		c0.1,2,0.2,4.2,0.3,6.7c0.1,2.4,0.2,4.7,0.3,6.8c0.1,2.1,0.2,3.8,0.3,5l12.1,1.7l-0.3,4.8H297.7z"/>
	<path class="st0" d="M369.1,82.5c-5,0-9.6-1.2-13.9-3.5c-4.3-2.3-7.7-5.7-10.2-10.1c-2.5-4.4-3.7-9.8-3.7-16.1
		c0-6.1,1.3-11.5,4-16.3c2.7-4.8,6.3-8.5,10.9-11.3c4.6-2.8,9.7-4.2,15.5-4.2c4.1,0,7.4,0.5,10,1.5s4.6,2.2,6,3.8
		c1.3,1.6,2,3.2,2,4.8c0,1.4-0.4,2.5-1.2,3.5c-0.8,0.9-2,1.4-3.7,1.4c-1.4,0-2.6-0.3-3.5-0.9c-1-0.6-2.2-1.7-3.8-3.3l-6.2-6.8
		l4.3,1.4c-3.9-0.8-7.6-0.5-11.3,1c-3.7,1.5-6.7,4.2-9.1,8.2c-2.4,3.9-3.6,9-3.6,15.2c0,7.5,1.9,13.3,5.8,17.3
		c3.9,4.1,8.7,6.1,14.4,6.1c3.8,0,7-0.6,9.5-1.9c2.5-1.3,5-3.4,7.3-6.2l3.5,2.9c-2.6,4.5-5.8,7.9-9.6,10.1
		C378.6,81.4,374.1,82.5,369.1,82.5z"/>
	<path class="st0" d="M395.4,81.4l-0.3-4.6l8.6-1.9c0.2-1.1,0.3-2.7,0.3-4.6c0-2,0.1-4.7,0.1-8.2c0-3.5,0.1-8.1,0.1-13.7V31.1
		c0-3.1,0-6.6-0.1-10.4c0-3.8-0.1-7.4-0.1-10.9c0-3.5-0.1-6.5-0.1-9c0-2.5-0.1-4.1-0.1-4.7l-10.3-1.4l-0.3-3.9l17.7-5.4l2.2,1.8
		c-0.1,2.9-0.2,5.8-0.2,8.7c0,2.9-0.1,6.1-0.1,9.4c0,3.4-0.1,7.1-0.1,11.2c0,4.1-0.1,8.8-0.1,14.2l0.4,0.1c3.3-3.5,6.5-6,9.6-7.5
		c3-1.5,6.4-2.2,10-2.2c3.2,0,6.3,0.8,9.3,2.5c3,1.7,5.4,4.2,7.3,7.8c1.9,3.5,2.9,8,2.9,13.6v15.2c0,3.4,0.1,6.4,0.3,9.1
		c0.2,2.6,0.4,4.5,0.6,5.6l8.6,1.9l-0.3,4.6h-25.9l-0.3-4.6l8-1.9c0.1-0.7,0.2-1.6,0.2-2.6c0-1,0.1-2.4,0.1-4.1
		c0-1.7,0.1-3.9,0.1-6.7V45.6c0-4.2-0.7-7.5-2.1-10c-1.4-2.5-3.2-4.4-5.4-5.5c-2.2-1.2-4.6-1.7-7.1-1.7c-3.2,0-6.2,0.8-9,2.4
		c-2.8,1.6-5.2,3.9-7.2,6.7v21.1c0,4.4,0.1,8.1,0.2,10.9c0.1,2.9,0.3,4.7,0.3,5.4l8.6,1.9l-0.3,4.6H395.4z"/>
	<path class="st0" d="M468.1,81.4l-0.3-4.7l9.3-1.8c0.1-0.4,0.2-1,0.2-1.8c0-0.8,0.1-2.3,0.1-4.4c0-2.1,0.1-5.1,0.1-8.9l0.1-8.7
		c0-4.2-0.1-8.1-0.3-11.5c-0.2-3.4-0.4-5.9-0.7-7.3l-9.3-1.9v-4.2l18-4.7l1.5,1.7c-0.2,2.9-0.3,5.7-0.5,8.4
		c-0.1,2.7-0.2,5.9-0.2,9.6v17.5c0,4.5,0.1,8.2,0.2,11c0.1,2.8,0.3,4.6,0.3,5.3l9.3,1.8l-0.3,4.7H468.1z M481.9,4.5
		c-2,0-3.8-0.7-5.4-2.1c-1.6-1.4-2.4-3.1-2.4-5.3c0-2,0.8-3.8,2.4-5.2c1.6-1.4,3.4-2.1,5.4-2.1c2,0,3.8,0.7,5.3,2.1
		c1.5,1.4,2.2,3.2,2.2,5.2c0,2.1-0.7,3.9-2.2,5.3C485.7,3.8,484,4.5,481.9,4.5z"/>
	<path class="st0" d="M526.1,81.9l-24.2-53.1l-6.5-2.1l0.3-4.6h24.7l0.3,4.6l-8.6,2.1l20,44.3l-3.6,0.1l18.3-44.5l-8.6-2.1l0.3-4.6
		h22.3l0.3,4.6l-6.5,2.1l-24.5,53.1H526.1z"/>
	<path class="st0" d="M589,82.5c-5.1,0-9.7-1.2-14-3.5c-4.3-2.3-7.6-5.7-10.1-10.1c-2.5-4.4-3.7-9.7-3.7-15.9
		c0-6.7,1.3-12.4,3.9-17.1c2.6-4.8,6-8.4,10.3-11c4.2-2.6,8.8-3.8,13.6-3.7c6.9,0.1,12.4,2.4,16.4,6.9c4,4.5,6,11.2,6,20.1v2.2
		h-43.2v-5.7h35.5L602,46v-2.5c0-5.5-1.2-9.8-3.7-12.8c-2.5-3-6-4.5-10.5-4.5c-2.7,0-5.3,0.8-7.8,2.4c-2.5,1.6-4.6,4-6.2,7.3
		c-1.6,3.2-2.4,7.3-2.4,12.2v1.4c0,7.9,1.9,14,5.8,18.3c3.8,4.3,8.7,6.5,14.6,6.5c3.4,0,6.4-0.6,8.9-1.9c2.5-1.3,5-3.4,7.4-6.4
		l3.3,2.9c-2.6,4.6-5.8,8-9.6,10.3C597.9,81.4,593.7,82.5,589,82.5z"/>
	<path class="st0" d="M667.9,82.5c-3.5,0-6.7-0.7-9.5-2.1c-2.8-1.4-5.1-3.2-6.7-5.4c-1.7-2.2-2.5-4.6-2.5-7.1c0-3,1-5.6,3-7.6
		c2-2,5.4-3.8,10.1-5.3l20.9-7.2v-7.6c0-2.5-0.7-4.7-2.1-6.7c-1.4-1.9-3.3-3.5-5.8-4.6c-2.4-1.1-5.1-1.7-8.2-1.7
		c-2.5,0-4.2,0.5-5.1,1.5c-0.9,1-1.4,3.1-1.6,6.2l-0.3,5c-3,0.8-5.5,0.8-7.6-0.2c-2.1-1-3.1-2.5-3.1-4.5c0-1.4,0.6-2.9,1.9-4.4
		c1.2-1.6,2.9-3,4.9-4.4c2-1.3,4.3-2.5,6.7-3.5c2.4-1,5-1.6,7.6-2c6.4,0,11.5,1.8,15.5,5.3c4,3.5,6,8.1,6.1,13.9L692,64.6
		c0,1.5,0.1,3.1,0.2,4.9c0.1,1.8,0.3,3.1,0.6,3.8l8.7,1.7v3.7l-6.2,2.2c-1.2,0.5-2.3,0.8-3.3,1.1c-1,0.3-1.8,0.4-2.4,0.4
		c-2.7,0-4.3-1.5-5-4.6l-1.2-5.1l1.9-0.3c-3.1,3.4-6.1,5.9-8.9,7.6C673.6,81.7,670.8,82.5,667.9,82.5z M670.5,75.5
		c2.5,0,4.8-0.6,6.9-1.7c2.1-1.1,4-2.8,5.9-5.1v-15l-17.3,5c-2.2,0.6-3.8,1.5-4.8,2.7s-1.5,2.8-1.5,4.8c0,2.3,1.1,4.4,3.3,6.4
		C665.3,74.6,667.8,75.5,670.5,75.5z"/>
	<path class="st0" d="M728.6,82.5c-3.3,0-6.6-0.4-9.9-1.2c-3.3-0.8-6.2-1.8-8.7-3.1l-0.7-14.4h6.2l2.8,10c3,2.3,6.7,3.5,11.1,3.5
		c3.2,0,5.9-0.8,8-2.4c2.1-1.6,3.2-3.8,3.2-6.6c0-2.6-0.9-4.8-2.8-6.7c-1.8-1.8-5.3-3.9-10.4-6.1c-6.5-2.9-11-5.6-13.6-8.2
		s-4-5.9-4-9.9c0-3.1,0.9-5.9,2.8-8.4c1.8-2.4,4.4-4.4,7.8-5.8c3.3-1.4,7.2-2.1,11.5-2.1c2.5,0,5,0.2,7.6,0.6
		c2.6,0.4,4.8,0.9,6.5,1.7l1.5,14h-5.8l-3.5-9.3c-0.9-0.6-2-1-3.3-1.3c-1.3-0.3-2.7-0.5-4.2-0.5c-3.4,0-6.1,0.8-8.2,2.4
		c-2,1.6-3,3.7-3,6.2c0,2.9,1.1,5.2,3.2,6.9c2.1,1.8,5.9,4,11.2,6.7c6.1,2.9,10.3,5.6,12.7,8.2c2.4,2.6,3.6,5.8,3.6,9.5
		c0,4.7-2.1,8.6-6.2,11.7C740.1,80.9,734.9,82.5,728.6,82.5z"/>
	<path class="st0" d="M788,81.4l-0.3-4.7l8-1.9c0.1-0.4,0.2-1.1,0.2-2.1c0-1.1,0.1-3,0.1-5.7c0-2.7,0.1-6.6,0.1-11.6l0.1-29.8
		c0-4.8,0-8.5-0.1-11.2c-0.1-2.6-0.2-4.5-0.2-5.5c0-1.1-0.1-1.7-0.2-1.9l-8.5-2.2l0.3-4.7h28c8.5,0,15.2,2,20.2,6s7.5,9.8,7.5,17.4
		c0,5.1-1.3,9.5-4,13.2c-2.7,3.7-6.1,6.6-10.4,8.6c-4.2,2-8.9,3-13.9,3c-2.2,0-4.3-0.1-6.1-0.3c-1.8-0.2-3.6-0.5-5.1-0.8v-6.8
		c2.3,0.6,4.3,1,6,1.2c1.7,0.3,3.3,0.4,4.8,0.4c5.7,0,10.2-1.4,13.4-4.1c3.2-2.7,4.8-7,4.8-12.8c0-6.7-1.8-11.6-5.3-14.8
		c-3.6-3.2-7.9-4.8-13.1-4.8h-8.3c0,0.6,0,2-0.1,4c0,2-0.1,4.5-0.1,7.3c0,2.8-0.1,5.7-0.1,8.7l0.1,29.8c0,5,0,8.8,0.1,11.4
		c0,2.6,0.1,4.5,0.3,5.5c0.1,1.1,0.2,1.8,0.2,2.1l11.5,1.9l-0.3,5H788z"/>
	<path class="st0" d="M852.4,81.4l-0.3-4.6l8.6-1.9c0.1-0.6,0.2-1.4,0.2-2.6c0-1.2,0.1-2.8,0.1-4.8c0-2.1,0.1-4.6,0.1-7.7V48.8
		c0-3.2-0.1-6.4-0.3-9.6c-0.2-3.2-0.4-5.5-0.7-7l-8.9-1.9v-4.2l16.9-4.7l1.7,1.8l-0.7,11.8l0.4,0.1c2.9-5.4,5.7-9.1,8.6-11
		c2.9-1.9,5.5-2.8,7.9-2.8c2,0,3.7,0.5,5.1,1.5c1.3,1,2,2.4,2,4.3c0,1.9-0.7,3.4-2.1,4.4c-1.4,1-3.2,1.5-5.4,1.5
		c-1.6,0-3.1-0.4-4.5-1.1c-1.4-0.7-2.7-1.7-3.8-2.8l1.9,1c-1.8,1.2-3.5,2.9-5.1,5c-1.7,2.1-3.2,4.8-4.6,7.9l0.1,13.4
		c0.1,2,0.2,4.2,0.3,6.7c0.1,2.4,0.2,4.7,0.3,6.8c0.1,2.1,0.2,3.8,0.3,5l12.1,1.7l-0.3,4.8H852.4z"/>
	<path class="st0" d="M925.5,82.5c-5.9,0-11.1-1.3-15.5-3.9c-4.4-2.6-7.8-6.2-10.2-10.9c-2.4-4.7-3.6-10-3.6-16c0-6.1,1.3-11.4,4-16
		c2.6-4.6,6.2-8.2,10.7-10.7c4.5-2.6,9.5-3.9,15-3.9c5.6,0,10.5,1.2,14.7,3.7s7.4,6,9.7,10.6c2.3,4.6,3.5,9.9,3.5,16
		c0,5.7-1.2,10.9-3.7,15.7s-5.9,8.5-10.2,11.2C935.6,81.1,930.8,82.5,925.5,82.5z M926.8,76.6c3.4,0,6.4-1,8.9-3
		c2.5-2,4.5-4.8,5.9-8.2c1.4-3.5,2.1-7.5,2.1-12c0-7.9-1.8-14.4-5.3-19.3c-3.5-4.9-8.1-7.4-13.7-7.4c-5.4,0-9.7,2.1-13,6.4
		c-3.3,4.3-5,10-5,17.1c0,5.3,0.9,9.9,2.6,13.9c1.7,4,4.1,7.1,7.1,9.3C919.4,75.5,922.9,76.6,926.8,76.6z"/>
	<path class="st0" d="M956.3,113.4l-2.4-4.2c4.8-2.8,8.4-6.1,10.7-9.8c2.3-3.8,3.5-8.9,3.5-15.4l0.1-36.9c0-4.1-0.1-7.5-0.3-10.2
		c-0.2-2.7-0.4-4.4-0.6-4.9l-9.3-1.8v-4.2l18-4.7l1.5,1.8c-0.2,2.3-0.3,4.8-0.5,7.4s-0.2,6-0.2,10l0.1,41.6c0,3.4-0.3,6.6-1,9.5
		c-0.7,2.9-1.8,5.7-3.5,8.2c-1.6,2.6-3.7,5-6.4,7.2C963.5,109.3,960.2,111.4,956.3,113.4z M972.7,4.5c-2,0-3.8-0.7-5.4-2.1
		c-1.6-1.4-2.4-3.1-2.4-5.3c0-2,0.8-3.8,2.4-5.2c1.6-1.4,3.4-2.1,5.4-2.1c2,0,3.8,0.7,5.3,2.1c1.5,1.4,2.2,3.2,2.2,5.2
		c0,2.1-0.7,3.9-2.2,5.3C976.5,3.8,974.7,4.5,972.7,4.5z"/>
	<path class="st0" d="M1017,82.5c-5.1,0-9.7-1.2-14-3.5c-4.2-2.3-7.6-5.7-10.1-10.1c-2.5-4.4-3.7-9.7-3.7-15.9
		c0-6.7,1.3-12.4,3.9-17.1c2.6-4.8,6-8.4,10.3-11c4.2-2.6,8.8-3.8,13.6-3.7c6.9,0.1,12.4,2.4,16.4,6.9c4,4.5,6,11.2,6,20.1v2.2
		h-43.2v-5.7h35.5L1030,46v-2.5c0-5.5-1.2-9.8-3.7-12.8c-2.5-3-6-4.5-10.5-4.5c-2.7,0-5.3,0.8-7.8,2.4c-2.5,1.6-4.6,4-6.2,7.3
		c-1.6,3.2-2.4,7.3-2.4,12.2v1.4c0,7.9,1.9,14,5.8,18.3c3.8,4.3,8.7,6.5,14.6,6.5c3.4,0,6.4-0.6,8.9-1.9c2.5-1.3,5-3.4,7.4-6.4
		l3.3,2.9c-2.6,4.6-5.8,8-9.6,10.3C1025.9,81.4,1021.7,82.5,1017,82.5z"/>
	<path class="st0" d="M1075,82.5c-5,0-9.6-1.2-13.9-3.5c-4.3-2.3-7.7-5.7-10.2-10.1c-2.5-4.4-3.7-9.8-3.7-16.1
		c0-6.1,1.3-11.5,4-16.3c2.7-4.8,6.3-8.5,10.9-11.3c4.6-2.8,9.7-4.2,15.5-4.2c4.1,0,7.4,0.5,10,1.5s4.6,2.2,6,3.8
		c1.3,1.6,2,3.2,2,4.8c0,1.4-0.4,2.5-1.2,3.5c-0.8,0.9-2,1.4-3.7,1.4c-1.4,0-2.6-0.3-3.5-0.9c-1-0.6-2.2-1.7-3.8-3.3l-6.2-6.8
		l4.3,1.4c-3.9-0.8-7.6-0.5-11.3,1c-3.7,1.5-6.7,4.2-9.1,8.2c-2.4,3.9-3.6,9-3.6,15.2c0,7.5,1.9,13.3,5.8,17.3
		c3.9,4.1,8.7,6.1,14.4,6.1c3.8,0,7-0.6,9.5-1.9c2.5-1.3,5-3.4,7.3-6.2l3.5,2.9c-2.6,4.5-5.8,7.9-9.6,10.1
		C1084.5,81.4,1080.1,82.5,1075,82.5z"/>
	<path class="st0" d="M1144.8,73.6c-1.8,2.9-4.2,5-7.1,6.5c-2.9,1.5-5.8,2.2-8.9,2.2c-5.4,0-9.8-1.7-13.2-5
		c-3.5-3.3-5.2-8.3-5.2-14.8l0.3-33.8h-9.7v-2.5l16.4-15.7h2.1l-0.3,15L1119,60c0,5,1.1,8.8,3.2,11.3c2.1,2.5,5.2,3.8,9.1,3.8
		c2.2,0,4.3-0.5,6.2-1.4c1.9-0.9,3.5-2.1,4.9-3.5L1144.8,73.6z M1115.1,28.7v-6.4h25.4v6.4H1115.1z"/>
</g>
</svg>
