<svg id="hypothesis" xmlns="http://www.w3.org/2000/svg" width="20.202" height="23.564" viewBox="0 0 20.202 23.564">
  <path id="Path" d="M12.672,20.187h5.842A1.685,1.685,0,0,0,20.2,18.5V1.689A1.718,1.718,0,0,0,18.5,0H1.689A1.685,1.685,0,0,0,0,1.689V18.514A1.685,1.685,0,0,0,1.689,20.2H7.53L10.1,23.564l2.571-3.377Z" fill="#fff" fill-rule="evenodd"/>
  <path id="Path_00000026161213852049561010000013655607691259475884_" d="M95.589,91.847A1.673,1.673,0,1,0,93.9,90.173,1.682,1.682,0,0,0,95.589,91.847Z" transform="translate(-79.615 -75.037)" fill="#222" fill-rule="evenodd"/>
  <path id="Path_00000042703131421562066040000018009465530216964515_" d="M24.625,22.1H22.1V35.563h2.525V31.775c0-2.008.837-2.738,1.673-2.951s1.7.259,1.7,1.689v5.051h2.525v-5.8A3.133,3.133,0,0,0,24.625,28Z" transform="translate(-18.738 -18.738)" fill="#222" fill-rule="evenodd"/>
</svg>
