<?xml version="1.0" encoding="utf-8"?>
<!-- Generator: Adobe Illustrator 25.4.1, SVG Export Plug-In . SVG Version: 6.00 Build 0)  -->
<svg version="1.1" id="Layer_1" xmlns="http://www.w3.org/2000/svg" xmlns:xlink="http://www.w3.org/1999/xlink" x="0px" y="0px"
	 viewBox="0 0 155 155" style="enable-background:new 0 0 679 155;" xml:space="preserve">
<style type="text/css">
	.st0{fill-rule:evenodd;clip-rule:evenodd;fill:#202020;}
	.st1{fill-rule:evenodd;clip-rule:evenodd;fill:#FFFFFF;}
</style>
<path id="Path" class="st0" d="M83.3,132.7h38.4c6.1,0,11.1-4.9,11.1-11.1V11.1C132.7,5,127.7,0,121.6,0H11.1C5,0,0,4.9,0,11.1
	v110.6c0,6.1,4.9,11.1,11.1,11.1h38.4l16.9,22.1L83.3,132.7L83.3,132.7z"/>
<path id="Path_00000026161213852049561010000013655607691259475884_" class="st1" d="M105,110.5c6.1,0,11.1-4.9,11.1-11
	s-5-11-11.1-11c-6.1,0-11.1,4.9-11.1,11S98.9,110.5,105,110.5z"/>
<path id="Path_00000042703131421562066040000018009465530216964515_" class="st1" d="M38.7,22.1H22.1v88.5h16.6V85.7
	c0-13.2,5.5-18,11-19.4c5.5-1.4,11.2,1.7,11.2,11.1v33.2h16.6V72.5c0-17.2-11.2-22.7-22.3-22.7c-11,0-16.5,11.1-16.5,11.1V22.1z"/>
</svg>
