<svg xmlns="http://www.w3.org/2000/svg" width="20.545" height="20.545" viewBox="0 0 20.545 20.545">
  <g id="lupka" transform="translate(-19.1 -19.1)">
    <g id="Group_25" data-name="Group 25" transform="translate(19.1 19.1)">
      <path id="Path_10" data-name="Path 10" d="M27.656,20.811a6.214,6.214,0,0,1,4.791,2.053A6.757,6.757,0,0,1,34.5,27.656a7.8,7.8,0,0,1-1.882,4.962,6.757,6.757,0,0,1-4.791,2.053,6.475,6.475,0,0,1-4.791-2.053,6.757,6.757,0,0,1-2.053-4.791,6.475,6.475,0,0,1,2.053-4.791,6.29,6.29,0,0,1,4.62-2.224m0-1.711a8.026,8.026,0,0,0-5.989,2.567,8.472,8.472,0,0,0,0,12.149,8.6,8.6,0,0,0,5.989,2.567,8.3,8.3,0,0,0,5.989-2.567,8.471,8.471,0,0,0,0-12.149A8.026,8.026,0,0,0,27.656,19.1Z" transform="translate(-19.1 -19.1)" fill="#222"/>
    </g>
    <g id="Group_26" data-name="Group 26" transform="translate(33.131 33.131)">
      <line id="Line_38" data-name="Line 38" x2="6.16" y2="6.16" fill="none" stroke="#222" stroke-miterlimit="10" stroke-width="1"/>
    </g>
  </g>
</svg>
