<svg width="30" height="30" viewBox="0 0 30 30" fill="none" xmlns="http://www.w3.org/2000/svg">
<path d="M5.63312 0L0 5.64935V30H24.3507L30 24.3507V0H5.64935H5.63312ZM6.25 1.49351H27.4351L23.7338 5.19481H2.5487L6.26623 1.49351H6.25ZM19.5779 19.6104V11.461L23.2955 7.75974V23.2955H6.70454V11.8994H10.3896V19.6104H19.5942H19.5779ZM11.8669 18.1169V11.8994H18.0844V18.1169H11.8669ZM1.47727 6.70455H22.224L18.5227 10.4058H5.19481V23.7338L1.49351 27.4351V6.68831L1.47727 6.70455ZM23.7175 28.4903H2.53246L6.25 24.789H27.4351L23.7338 28.4903H23.7175ZM28.4903 23.2955H24.789V6.26624L28.4903 2.56494V23.3117V23.2955Z" fill="#222"/>
</svg>
