<svg xmlns="http://www.w3.org/2000/svg" width="20.092" height="75.697" viewBox="0 0 20.092 75.697">
  <g id="vnlab_logo" transform="translate(-13.4 87.397) rotate(-90)">
    <g id="Group_28" data-name="Group 28" transform="translate(49.998 14.505)">
      <path id="Path_11" data-name="Path 11" d="M159.637,31.722c-1.983,0-2.536-1.43-2.081-3.349.52-2.211,1.951-3.966,4.1-3.966,2.016,0,2.5,1.528,2.048,3.414-.488,2.178-1.886,3.9-4.064,3.9m.455,2.8c3.349,0,5.787-2.893,6.567-6.145.813-3.609-.423-6.7-3.966-6.7a5.145,5.145,0,0,0-3.674,1.4l1.5-6.242h-3.121l-4.031,17.458h3.121l.358-1.333a3.7,3.7,0,0,0,3.251,1.561M145.625,31.95c-1.333,0-2.016-.585-2.016-1.4,0-.78.618-1.5,2.016-1.5h3.186v.1a3.114,3.114,0,0,1-3.186,2.8m.585-10.306a6.057,6.057,0,0,0-5.2,2.7L143.317,26a3.316,3.316,0,0,1,2.893-1.756c1.951,0,2.5.78,2.568,2.6H145.43c-2.763,0-4.909.878-4.909,3.576,0,2.568,1.951,4.031,4.486,4.031a4.684,4.684,0,0,0,3.869-1.886l.2,1.658h2.471V26.748c0-2.991-1.951-5.1-5.332-5.1M129.5,34.258h9.4v-1.17h-8.16V16.8H129.5Z" transform="translate(-129.5 -16.8)" fill="#222"/>
    </g>
    <path id="Path_12" data-name="Path 12" d="M39.124,26,34.442,37.7H32.882L28.2,26h2.308l3.154,8.29L36.815,26Z" transform="translate(-11.136 -8.504)" fill="#222"/>
    <path id="Path_13" data-name="Path 13" d="M75.705,26V37.7H73.625l-4.909-8.225V37.7H66.7V26h2.081l4.909,8.193V26Z" transform="translate(-37.119 -8.504)" fill="#222"/>
    <path id="Path_14" data-name="Path 14" d="M16.577,14.993a3.2,3.2,0,0,0-3.316,3.316V28.647a3.2,3.2,0,0,0,3.316,3.316h24.35a3.186,3.186,0,0,0,3.316-3.316V18.277a3.2,3.2,0,0,0-3.316-3.316H16.577Zm24.35,18.5H16.577c-4.812,0-4.877-4.812-4.877-4.877V18.277c0-4.812,4.812-4.877,4.877-4.877h24.35A4.714,4.714,0,0,1,45.8,18.277V28.615a4.474,4.474,0,0,1-2.471,4.291,6.027,6.027,0,0,1-2.406.585" fill="#222"/>
  </g>
</svg>
